<?xml version="1.0" encoding="UTF-8" standalone="no"?>
<!DOCTYPE svg PUBLIC "-//W3C//DTD SVG 1.1//EN"
 "http://www.w3.org/Graphics/SVG/1.1/DTD/svg11.dtd">
<!-- Generated by graphviz version 12.2.1 (20241206.2353)
 -->
<!-- Pages: 1 -->
<svg width="724pt" height="689pt"
 viewBox="0.00 0.00 724.00 689.43" xmlns="http://www.w3.org/2000/svg" xmlns:xlink="http://www.w3.org/1999/xlink">
<g id="graph0" class="graph" transform="scale(1 1) rotate(0) translate(4 685.43)">
<polygon fill="white" stroke="none" points="-4,4 -4,-685.43 720,-685.43 720,4 -4,4"/>
<g id="clust1" class="cluster">
<title>cluster_s1</title>
<polygon fill="#e2c6fc" stroke="black" stroke-dasharray="5,2" points="8,-560.68 8,-625.18 376,-625.18 376,-560.68 8,-560.68"/>
</g>
<g id="clust2" class="cluster">
<title>cluster_s8</title>
<path fill="none" stroke="black" stroke-width="5" d="M419,-8C419,-8 583,-8 583,-8 589,-8 595,-14 595,-20 595,-20 595,-240.5 595,-240.5 595,-246.5 589,-252.5 583,-252.5 583,-252.5 419,-252.5 419,-252.5 413,-252.5 407,-246.5 407,-240.5 407,-240.5 407,-20 407,-20 407,-14 413,-8 419,-8"/>
<text text-anchor="middle" x="501" y="-235.2" font-family="Times,serif" font-size="14.00">error logger</text>
</g>
<g id="clust3" class="cluster">
<title>cluster_s3</title>
<path fill="none" stroke="black" stroke-width="5" d="M400,-314.5C400,-314.5 696,-314.5 696,-314.5 702,-314.5 708,-320.5 708,-326.5 708,-326.5 708,-661.43 708,-661.43 708,-667.43 702,-673.43 696,-673.43 696,-673.43 400,-673.43 400,-673.43 394,-673.43 388,-667.43 388,-661.43 388,-661.43 388,-326.5 388,-326.5 388,-320.5 394,-314.5 400,-314.5"/>
<text text-anchor="middle" x="548" y="-656.13" font-family="Times,serif" font-size="14.00">web crawler</text>
</g>
<!-- n2 -->
<g id="node1" class="node">
<title>n2</title>
<text text-anchor="start" x="36.5" y="-587.88" font-family="Courier New" font-size="14.00">Description:</text>
<text text-anchor="start" x="149.5" y="-587.88" font-family="Courier New" font-size="14.00">A mesh with 2 components</text>
</g>
<!-- n10 -->
<g id="node2" class="node">
<title>n10</title>
<ellipse fill="lightgrey" stroke="black" stroke-width="2.5" cx="501" cy="-172" rx="36" ry="36"/>
<text text-anchor="middle" x="501" y="-166.95" font-family="Courier New" font-size="14.00">error</text>
</g>
<!-- n9 -->
<g id="node3" class="node">
<title>n9</title>
<polygon fill="#9dddea" stroke="#9dddea" stroke-width="2.5" points="575,-100 427,-100 427,-28 575,-28 575,-100"/>
<text text-anchor="middle" x="501" y="-58.95" font-family="Courier New" font-size="14.00">logs http errors</text>
</g>
<!-- n10&#45;&gt;n9 -->
<g id="edge1" class="edge">
<title>n10&#45;&gt;n9</title>
<path fill="none" stroke="black" d="M501,-135.13C501,-135.13 501,-112.21 501,-112.21"/>
<polygon fill="black" stroke="black" points="504.5,-112.21 501,-102.21 497.5,-112.21 504.5,-112.21"/>
</g>
<!-- n5 -->
<g id="node4" class="node">
<title>n5</title>
<ellipse fill="lightgrey" stroke="black" stroke-width="2.5" cx="548" cy="-592.93" rx="36" ry="36"/>
<text text-anchor="middle" x="548" y="-587.88" font-family="Courier New" font-size="14.00">url</text>
</g>
<!-- n4 -->
<g id="node7" class="node">
<title>n4</title>
<polygon fill="#9dddea" stroke="#9dddea" stroke-width="2.5" points="688,-520.93 408,-520.93 408,-448.93 688,-448.93 688,-520.93"/>
<text text-anchor="middle" x="548" y="-479.88" font-family="Courier New" font-size="14.00">gets http headers from given url</text>
</g>
<!-- n5&#45;&gt;n4 -->
<g id="edge2" class="edge">
<title>n5&#45;&gt;n4</title>
<path fill="none" stroke="black" d="M548,-556.06C548,-556.06 548,-533.14 548,-533.14"/>
<polygon fill="black" stroke="black" points="551.5,-533.14 548,-523.14 544.5,-533.14 551.5,-533.14"/>
</g>
<!-- n6 -->
<g id="node5" class="node">
<title>n6</title>
<ellipse fill="lightgrey" stroke="black" stroke-width="2.5" cx="501" cy="-373.72" rx="36" ry="36"/>
<text text-anchor="middle" x="501" y="-368.67" font-family="Courier New" font-size="14.00">errors</text>
</g>
<!-- n6&#45;&gt;n10 -->
<g id="edge5" class="edge">
<title>n6&#45;&gt;n10</title>
<path fill="none" stroke="#e437ea" stroke-width="2" d="M501,-336.72C501,-336.72 501,-221.79 501,-221.79"/>
<polygon fill="#e437ea" stroke="#e437ea" stroke-width="2" points="504.5,-221.79 501,-211.79 497.5,-221.79 504.5,-221.79"/>
</g>
<!-- n7 -->
<g id="node6" class="node">
<title>n7</title>
<ellipse fill="lightgrey" stroke="black" stroke-width="2.5" cx="594" cy="-373.72" rx="39.22" ry="39.22"/>
<text text-anchor="middle" x="594" y="-368.67" font-family="Courier New" font-size="14.00">headers</text>
</g>
<!-- n4&#45;&gt;n6 -->
<g id="edge3" class="edge">
<title>n4&#45;&gt;n6</title>
<path fill="none" stroke="black" d="M501,-448.21C501,-448.21 501,-421.91 501,-421.91"/>
<polygon fill="black" stroke="black" points="504.5,-421.91 501,-411.91 497.5,-421.91 504.5,-421.91"/>
</g>
<!-- n4&#45;&gt;n7 -->
<g id="edge4" class="edge">
<title>n4&#45;&gt;n7</title>
<path fill="none" stroke="black" d="M594,-448.21C594,-448.21 594,-425.36 594,-425.36"/>
<polygon fill="black" stroke="black" points="597.5,-425.36 594,-415.36 590.5,-425.36 597.5,-425.36"/>
</g>
</g>
</svg>
