<?xml version="1.0" encoding="UTF-8" standalone="no"?>
<!DOCTYPE svg PUBLIC "-//W3C//DTD SVG 1.1//EN"
 "http://www.w3.org/Graphics/SVG/1.1/DTD/svg11.dtd">
<!-- Generated by graphviz version 12.2.1 (20241206.2353)
 -->
<!-- Pages: 1 -->
<svg width="2520pt" height="2986pt"
 viewBox="0.00 0.00 2520.00 2985.53" xmlns="http://www.w3.org/2000/svg" xmlns:xlink="http://www.w3.org/1999/xlink">
<g id="graph0" class="graph" transform="scale(1 1) rotate(0) translate(4 2981.53)">
<polygon fill="white" stroke="none" points="-4,4 -4,-2981.53 2516,-2981.53 2516,4 -4,4"/>
<g id="clust1" class="cluster">
<title>cluster_s1</title>
<polygon fill="#e2c6fc" stroke="black" stroke-dasharray="5,2" points="665,-2856.78 665,-2921.28 1033,-2921.28 1033,-2856.78 665,-2856.78"/>
</g>
<g id="clust2" class="cluster">
<title>cluster_s22</title>
<path fill="none" stroke="black" stroke-width="5" d="M118,-507.89C118,-507.89 2492,-507.89 2492,-507.89 2498,-507.89 2504,-513.89 2504,-519.89 2504,-519.89 2504,-1370.12 2504,-1370.12 2504,-1376.12 2498,-1382.12 2492,-1382.12 2492,-1382.12 118,-1382.12 118,-1382.12 112,-1382.12 106,-1376.12 106,-1370.12 106,-1370.12 106,-519.89 106,-519.89 106,-513.89 112,-507.89 118,-507.89"/>
<text text-anchor="middle" x="1305" y="-1364.82" font-family="Times,serif" font-size="14.00">aggregated_state</text>
</g>
<g id="clust3" class="cluster">
<title>cluster_s43</title>
<path fill="none" stroke="black" stroke-width="5" d="M20,-8C20,-8 390,-8 390,-8 396,-8 402,-14 402,-20 402,-20 402,-433.89 402,-433.89 402,-439.89 396,-445.89 390,-445.89 390,-445.89 20,-445.89 20,-445.89 14,-445.89 8,-439.89 8,-433.89 8,-433.89 8,-20 8,-20 8,-14 14,-8 20,-8"/>
<text text-anchor="middle" x="205" y="-428.59" font-family="Times,serif" font-size="14.00">aggregated_state_publisher</text>
</g>
<g id="clust4" class="cluster">
<title>cluster_s51</title>
<path fill="none" stroke="black" stroke-width="5" d="M1088,-2161.01C1088,-2161.01 1455,-2161.01 1455,-2161.01 1461,-2161.01 1467,-2167.01 1467,-2173.01 1467,-2173.01 1467,-2543.03 1467,-2543.03 1467,-2549.03 1461,-2555.03 1455,-2555.03 1455,-2555.03 1088,-2555.03 1088,-2555.03 1082,-2555.03 1076,-2549.03 1076,-2543.03 1076,-2543.03 1076,-2173.01 1076,-2173.01 1076,-2167.01 1082,-2161.01 1088,-2161.01"/>
<text text-anchor="middle" x="1271.5" y="-2537.73" font-family="Times,serif" font-size="14.00">gas</text>
</g>
<g id="clust5" class="cluster">
<title>cluster_s9</title>
<path fill="none" stroke="black" stroke-width="5" d="M721,-1444.12C721,-1444.12 1903,-1444.12 1903,-1444.12 1909,-1444.12 1915,-1450.12 1915,-1456.12 1915,-1456.12 1915,-2087.01 1915,-2087.01 1915,-2093.01 1909,-2099.01 1903,-2099.01 1903,-2099.01 721,-2099.01 721,-2099.01 715,-2099.01 709,-2093.01 709,-2087.01 709,-2087.01 709,-1456.12 709,-1456.12 709,-1450.12 715,-1444.12 721,-1444.12"/>
<text text-anchor="middle" x="1312" y="-2081.71" font-family="Times,serif" font-size="14.00">human&#45;Leon</text>
</g>
<g id="clust6" class="cluster">
<title>cluster_s3</title>
<path fill="none" stroke="black" stroke-width="5" d="M1786,-2181.77C1786,-2181.77 2058,-2181.77 2058,-2181.77 2064,-2181.77 2070,-2187.77 2070,-2193.77 2070,-2193.77 2070,-2543.03 2070,-2543.03 2070,-2549.03 2064,-2555.03 2058,-2555.03 2058,-2555.03 1786,-2555.03 1786,-2555.03 1780,-2555.03 1774,-2549.03 1774,-2543.03 1774,-2543.03 1774,-2193.77 1774,-2193.77 1774,-2187.77 1780,-2181.77 1786,-2181.77"/>
<text text-anchor="middle" x="1922" y="-2537.73" font-family="Times,serif" font-size="14.00">sun</text>
</g>
<g id="clust7" class="cluster">
<title>cluster_s47</title>
<path fill="none" stroke="black" stroke-width="5" d="M1550,-2617.03C1550,-2617.03 1862,-2617.03 1862,-2617.03 1868,-2617.03 1874,-2623.03 1874,-2629.03 1874,-2629.03 1874,-2957.53 1874,-2957.53 1874,-2963.53 1868,-2969.53 1862,-2969.53 1862,-2969.53 1550,-2969.53 1550,-2969.53 1544,-2969.53 1538,-2963.53 1538,-2957.53 1538,-2957.53 1538,-2629.03 1538,-2629.03 1538,-2623.03 1544,-2617.03 1550,-2617.03"/>
<text text-anchor="middle" x="1706" y="-2952.23" font-family="Times,serif" font-size="14.00">time</text>
</g>
<!-- n2 -->
<g id="node1" class="node">
<title>n2</title>
<text text-anchor="start" x="693.5" y="-2883.98" font-family="Courier New" font-size="14.00">Description:</text>
<text text-anchor="start" x="806.5" y="-2883.98" font-family="Courier New" font-size="14.00">A mesh with 6 components</text>
</g>
<!-- n24 -->
<g id="node2" class="node">
<title>n24</title>
<ellipse fill="lightgrey" stroke="black" stroke-width="2.5" cx="264" cy="-1171.19" rx="78.7" ry="78.7"/>
<text text-anchor="middle" x="264" y="-1166.14" font-family="Courier New" font-size="14.00">gas::temperature</text>
</g>
<!-- n23 -->
<g id="node21" class="node">
<title>n23</title>
<polygon fill="#9dddea" stroke="#9dddea" stroke-width="2.5" points="1721.38,-968.76 1086.62,-968.76 1086.62,-896.76 1721.38,-896.76 1721.38,-968.76"/>
<text text-anchor="middle" x="1404" y="-927.71" font-family="Courier New" font-size="14.00">composes data from multiple sources into one (single source of true for UI)</text>
</g>
<!-- n24&#45;&gt;n23 -->
<g id="edge1" class="edge">
<title>n24&#45;&gt;n23</title>
<path fill="none" stroke="black" d="M322,-1116.58C322,-1048.79 322,-942 322,-942 322,-942 1074.43,-942 1074.43,-942"/>
<polygon fill="black" stroke="black" points="1074.43,-945.5 1084.43,-942 1074.43,-938.5 1074.43,-945.5"/>
</g>
<!-- n31 -->
<g id="node3" class="node">
<title>n31</title>
<ellipse fill="lightgrey" stroke="black" stroke-width="2.5" cx="1869" cy="-1171.19" rx="131.34" ry="131.34"/>
<text text-anchor="middle" x="1869" y="-1166.14" font-family="Courier New" font-size="14.00">human&#45;Leon::body_temperature</text>
</g>
<!-- n31&#45;&gt;n23 -->
<g id="edge2" class="edge">
<title>n31&#45;&gt;n23</title>
<path fill="none" stroke="black" d="M1809.7,-1053C1746.39,-1053 1655.08,-1053 1655.08,-1053 1655.08,-1053 1655.08,-981 1655.08,-981"/>
<polygon fill="black" stroke="black" points="1658.58,-981 1655.08,-971 1651.58,-981 1658.58,-981"/>
</g>
<!-- n29 -->
<g id="node4" class="node">
<title>n29</title>
<ellipse fill="lightgrey" stroke="black" stroke-width="2.5" cx="2141" cy="-1171.19" rx="122.56" ry="122.56"/>
<text text-anchor="middle" x="2141" y="-1166.14" font-family="Courier New" font-size="14.00">human&#45;Leon::brain_activity</text>
</g>
<!-- n29&#45;&gt;n23 -->
<g id="edge3" class="edge">
<title>n29&#45;&gt;n23</title>
<path fill="none" stroke="black" d="M2093.23,-1057.51C2093.23,-1006.24 2093.23,-957 2093.23,-957 2093.23,-957 1733.65,-957 1733.65,-957"/>
<polygon fill="black" stroke="black" points="1733.65,-953.5 1723.65,-957 1733.65,-960.5 1733.65,-953.5"/>
</g>
<!-- n30 -->
<g id="node5" class="node">
<title>n30</title>
<ellipse fill="lightgrey" stroke="black" stroke-width="2.5" cx="510" cy="-1171.19" rx="148.88" ry="148.88"/>
<text text-anchor="middle" x="510" y="-1166.14" font-family="Courier New" font-size="14.00">human&#45;Leon::brain_activity_trend</text>
</g>
<!-- n30&#45;&gt;n23 -->
<g id="edge4" class="edge">
<title>n30&#45;&gt;n23</title>
<path fill="none" stroke="black" d="M567.77,-1032.99C567.77,-988.75 567.77,-951 567.77,-951 567.77,-951 1074.26,-951 1074.26,-951"/>
<polygon fill="black" stroke="black" points="1074.26,-954.5 1084.26,-951 1074.26,-947.5 1074.26,-954.5"/>
</g>
<!-- n32 -->
<g id="node6" class="node">
<title>n32</title>
<ellipse fill="lightgrey" stroke="black" stroke-width="2.5" cx="804" cy="-1171.19" rx="126.95" ry="126.95"/>
<text text-anchor="middle" x="804" y="-1166.14" font-family="Courier New" font-size="14.00">human&#45;Leon::breathing_phase</text>
</g>
<!-- n32&#45;&gt;n23 -->
<g id="edge5" class="edge">
<title>n32&#45;&gt;n23</title>
<path fill="none" stroke="black" d="M844.19,-1049.87C844.19,-1002.8 844.19,-960 844.19,-960 844.19,-960 1074.15,-960 1074.15,-960"/>
<polygon fill="black" stroke="black" points="1074.15,-963.5 1084.15,-960 1074.15,-956.5 1074.15,-963.5"/>
</g>
<!-- n26 -->
<g id="node7" class="node">
<title>n26</title>
<ellipse fill="lightgrey" stroke="black" stroke-width="2.5" cx="1115" cy="-1171.19" rx="166.43" ry="166.43"/>
<text text-anchor="middle" x="1115" y="-1166.14" font-family="Courier New" font-size="14.00">human&#45;Leon::heart_cardiac_activation</text>
</g>
<!-- n26&#45;&gt;n23 -->
<g id="edge6" class="edge">
<title>n26&#45;&gt;n23</title>
<path fill="none" stroke="black" d="M1184.03,-1018.84C1184.03,-1018.84 1184.03,-980.87 1184.03,-980.87"/>
<polygon fill="black" stroke="black" points="1187.53,-980.87 1184.03,-970.87 1180.53,-980.87 1187.53,-980.87"/>
</g>
<!-- n25 -->
<g id="node8" class="node">
<title>n25</title>
<ellipse fill="lightgrey" stroke="black" stroke-width="2.5" cx="1404" cy="-1171.19" rx="105.02" ry="105.02"/>
<text text-anchor="middle" x="1404" y="-1166.14" font-family="Courier New" font-size="14.00">human&#45;Leon::heart_rate</text>
</g>
<!-- n25&#45;&gt;n23 -->
<g id="edge7" class="edge">
<title>n25&#45;&gt;n23</title>
<path fill="none" stroke="black" d="M1404,-1065.22C1404,-1065.22 1404,-981.16 1404,-981.16"/>
<polygon fill="black" stroke="black" points="1407.5,-981.16 1404,-971.16 1400.5,-981.16 1407.5,-981.16"/>
</g>
<!-- n28 -->
<g id="node9" class="node">
<title>n28</title>
<ellipse fill="lightgrey" stroke="black" stroke-width="2.5" cx="1623" cy="-1171.19" rx="96.24" ry="96.24"/>
<text text-anchor="middle" x="1623" y="-1166.14" font-family="Courier New" font-size="14.00">human&#45;Leon::is_alive</text>
</g>
<!-- n28&#45;&gt;n23 -->
<g id="edge8" class="edge">
<title>n28&#45;&gt;n23</title>
<path fill="none" stroke="black" d="M1590.92,-1079.69C1590.92,-1079.69 1590.92,-981.1 1590.92,-981.1"/>
<polygon fill="black" stroke="black" points="1594.42,-981.1 1590.92,-971.1 1587.42,-981.1 1594.42,-981.1"/>
</g>
<!-- n27 -->
<g id="node10" class="node">
<title>n27</title>
<ellipse fill="lightgrey" stroke="black" stroke-width="2.5" cx="2325" cy="-1171.19" rx="43.6" ry="43.6"/>
<text text-anchor="middle" x="2325" y="-1166.14" font-family="Courier New" font-size="14.00">sun::uvi</text>
</g>
<!-- n27&#45;&gt;n23 -->
<g id="edge9" class="edge">
<title>n27&#45;&gt;n23</title>
<path fill="none" stroke="black" d="M2325,-1126.77C2325,-1060.9 2325,-945 2325,-945 2325,-945 1733.76,-945 1733.76,-945"/>
<polygon fill="black" stroke="black" points="1733.76,-941.5 1723.76,-945 1733.76,-948.5 1733.76,-941.5"/>
</g>
<!-- n37 -->
<g id="node11" class="node">
<title>n37</title>
<ellipse fill="lightgrey" stroke="black" stroke-width="2.5" cx="205" cy="-694.32" rx="78.7" ry="78.7"/>
<text text-anchor="middle" x="205" y="-689.27" font-family="Courier New" font-size="14.00">aggregated_state</text>
</g>
<!-- n45 -->
<g id="node22" class="node">
<title>n45</title>
<ellipse fill="lightgrey" stroke="black" stroke-width="2.5" cx="205" cy="-322.7" rx="78.7" ry="78.7"/>
<text text-anchor="middle" x="205" y="-317.65" font-family="Courier New" font-size="14.00">aggregated_state</text>
</g>
<!-- n37&#45;&gt;n45 -->
<g id="edge44" class="edge">
<title>n37&#45;&gt;n45</title>
<path fill="none" stroke="#e437ea" stroke-width="2" d="M205,-615.06C205,-615.06 205,-415.19 205,-415.19"/>
<polygon fill="#e437ea" stroke="#e437ea" stroke-width="2" points="208.5,-415.19 205,-405.19 201.5,-415.19 208.5,-415.19"/>
</g>
<!-- n33 -->
<g id="node12" class="node">
<title>n33</title>
<ellipse fill="lightgrey" stroke="black" stroke-width="2.5" cx="380" cy="-694.32" rx="78.7" ry="78.7"/>
<text text-anchor="middle" x="380" y="-689.27" font-family="Courier New" font-size="14.00">gas::temperature</text>
</g>
<!-- n39 -->
<g id="node13" class="node">
<title>n39</title>
<ellipse fill="lightgrey" stroke="black" stroke-width="2.5" cx="608" cy="-694.32" rx="131.34" ry="131.34"/>
<text text-anchor="middle" x="608" y="-689.27" font-family="Courier New" font-size="14.00">human&#45;Leon::body_temperature</text>
</g>
<!-- n35 -->
<g id="node14" class="node">
<title>n35</title>
<ellipse fill="lightgrey" stroke="black" stroke-width="2.5" cx="880" cy="-694.32" rx="122.56" ry="122.56"/>
<text text-anchor="middle" x="880" y="-689.27" font-family="Courier New" font-size="14.00">human&#45;Leon::brain_activity</text>
</g>
<!-- n36 -->
<g id="node15" class="node">
<title>n36</title>
<ellipse fill="lightgrey" stroke="black" stroke-width="2.5" cx="1169" cy="-694.32" rx="148.88" ry="148.88"/>
<text text-anchor="middle" x="1169" y="-689.27" font-family="Courier New" font-size="14.00">human&#45;Leon::brain_activity_trend</text>
</g>
<!-- n42 -->
<g id="node16" class="node">
<title>n42</title>
<ellipse fill="lightgrey" stroke="black" stroke-width="2.5" cx="1463" cy="-694.32" rx="126.95" ry="126.95"/>
<text text-anchor="middle" x="1463" y="-689.27" font-family="Courier New" font-size="14.00">human&#45;Leon::breathing_phase</text>
</g>
<!-- n41 -->
<g id="node17" class="node">
<title>n41</title>
<ellipse fill="lightgrey" stroke="black" stroke-width="2.5" cx="1774" cy="-694.32" rx="166.43" ry="166.43"/>
<text text-anchor="middle" x="1774" y="-689.27" font-family="Courier New" font-size="14.00">human&#45;Leon::heart_cardiac_activation</text>
</g>
<!-- n40 -->
<g id="node18" class="node">
<title>n40</title>
<ellipse fill="lightgrey" stroke="black" stroke-width="2.5" cx="2063" cy="-694.32" rx="105.02" ry="105.02"/>
<text text-anchor="middle" x="2063" y="-689.27" font-family="Courier New" font-size="14.00">human&#45;Leon::heart_rate</text>
</g>
<!-- n38 -->
<g id="node19" class="node">
<title>n38</title>
<ellipse fill="lightgrey" stroke="black" stroke-width="2.5" cx="2282" cy="-694.32" rx="96.24" ry="96.24"/>
<text text-anchor="middle" x="2282" y="-689.27" font-family="Courier New" font-size="14.00">human&#45;Leon::is_alive</text>
</g>
<!-- n34 -->
<g id="node20" class="node">
<title>n34</title>
<ellipse fill="lightgrey" stroke="black" stroke-width="2.5" cx="2440" cy="-694.32" rx="43.6" ry="43.6"/>
<text text-anchor="middle" x="2440" y="-689.27" font-family="Courier New" font-size="14.00">sun::uvi</text>
</g>
<!-- n23&#45;&gt;n37 -->
<g id="edge14" class="edge">
<title>n23&#45;&gt;n37</title>
<path fill="none" stroke="black" d="M1085.97,-933C739.66,-933 234.5,-933 234.5,-933 234.5,-933 234.5,-779.72 234.5,-779.72"/>
<polygon fill="black" stroke="black" points="238,-779.72 234.5,-769.72 231,-779.72 238,-779.72"/>
</g>
<!-- n23&#45;&gt;n33 -->
<g id="edge10" class="edge">
<title>n23&#45;&gt;n33</title>
<path fill="none" stroke="black" d="M1085.7,-924C794.89,-924 409.91,-924 409.91,-924 409.91,-924 409.91,-779.46 409.91,-779.46"/>
<polygon fill="black" stroke="black" points="413.41,-779.46 409.91,-769.46 406.41,-779.46 413.41,-779.46"/>
</g>
<!-- n23&#45;&gt;n39 -->
<g id="edge16" class="edge">
<title>n23&#45;&gt;n39</title>
<path fill="none" stroke="black" d="M1085.88,-915C902.59,-915 708.19,-915 708.19,-915 708.19,-915 708.19,-792.1 708.19,-792.1"/>
<polygon fill="black" stroke="black" points="711.69,-792.1 708.19,-782.1 704.69,-792.1 711.69,-792.1"/>
</g>
<!-- n23&#45;&gt;n35 -->
<g id="edge12" class="edge">
<title>n23&#45;&gt;n35</title>
<path fill="none" stroke="black" d="M1085.9,-906C1022.8,-906 975.57,-906 975.57,-906 975.57,-906 975.57,-784.06 975.57,-784.06"/>
<polygon fill="black" stroke="black" points="979.07,-784.06 975.57,-774.06 972.07,-784.06 979.07,-784.06"/>
</g>
<!-- n23&#45;&gt;n36 -->
<g id="edge13" class="edge">
<title>n23&#45;&gt;n36</title>
<path fill="none" stroke="black" d="M1202.25,-895.76C1202.25,-895.76 1202.25,-851.92 1202.25,-851.92"/>
<polygon fill="black" stroke="black" points="1205.75,-851.92 1202.25,-841.92 1198.75,-851.92 1205.75,-851.92"/>
</g>
<!-- n23&#45;&gt;n42 -->
<g id="edge19" class="edge">
<title>n23&#45;&gt;n42</title>
<path fill="none" stroke="black" d="M1463,-895.76C1463,-895.76 1463,-833.76 1463,-833.76"/>
<polygon fill="black" stroke="black" points="1466.5,-833.76 1463,-823.76 1459.5,-833.76 1466.5,-833.76"/>
</g>
<!-- n23&#45;&gt;n41 -->
<g id="edge18" class="edge">
<title>n23&#45;&gt;n41</title>
<path fill="none" stroke="black" d="M1664.47,-895.76C1664.47,-895.76 1664.47,-832.45 1664.47,-832.45"/>
<polygon fill="black" stroke="black" points="1667.97,-832.45 1664.47,-822.45 1660.97,-832.45 1667.97,-832.45"/>
</g>
<!-- n23&#45;&gt;n40 -->
<g id="edge17" class="edge">
<title>n23&#45;&gt;n40</title>
<path fill="none" stroke="black" d="M1722.28,-909C1855.14,-909 1979.16,-909 1979.16,-909 1979.16,-909 1979.16,-770.54 1979.16,-770.54"/>
<polygon fill="black" stroke="black" points="1982.66,-770.54 1979.16,-760.54 1975.66,-770.54 1982.66,-770.54"/>
</g>
<!-- n23&#45;&gt;n38 -->
<g id="edge15" class="edge">
<title>n23&#45;&gt;n38</title>
<path fill="none" stroke="black" d="M1722.17,-921C1952.91,-921 2224.66,-921 2224.66,-921 2224.66,-921 2224.66,-784.16 2224.66,-784.16"/>
<polygon fill="black" stroke="black" points="2228.16,-784.16 2224.66,-774.16 2221.16,-784.16 2228.16,-784.16"/>
</g>
<!-- n23&#45;&gt;n34 -->
<g id="edge11" class="edge">
<title>n23&#45;&gt;n34</title>
<path fill="none" stroke="black" d="M1722.23,-933C2026.73,-933 2440,-933 2440,-933 2440,-933 2440,-750.17 2440,-750.17"/>
<polygon fill="black" stroke="black" points="2443.5,-750.17 2440,-740.17 2436.5,-750.17 2443.5,-750.17"/>
</g>
<!-- n44 -->
<g id="node24" class="node">
<title>n44</title>
<polygon fill="#9dddea" stroke="#9dddea" stroke-width="2.5" points="382.12,-208 27.88,-208 27.88,-136 382.12,-136 382.12,-208"/>
<text text-anchor="middle" x="205" y="-166.95" font-family="Courier New" font-size="14.00">publishes aggregated state to unit socket</text>
</g>
<!-- n45&#45;&gt;n44 -->
<g id="edge20" class="edge">
<title>n45&#45;&gt;n44</title>
<path fill="none" stroke="black" d="M205,-243.38C205,-243.38 205,-220.37 205,-220.37"/>
<polygon fill="black" stroke="black" points="208.5,-220.37 205,-210.37 201.5,-220.37 208.5,-220.37"/>
</g>
<!-- n46 -->
<g id="node23" class="node">
<title>n46</title>
<ellipse fill="lightgrey" stroke="black" stroke-width="2.5" cx="205" cy="-64" rx="36" ry="36"/>
<text text-anchor="middle" x="205" y="-58.95" font-family="Courier New" font-size="14.00">stream</text>
</g>
<!-- n44&#45;&gt;n46 -->
<g id="edge21" class="edge">
<title>n44&#45;&gt;n46</title>
<path fill="none" stroke="black" d="M205,-135.13C205,-135.13 205,-112.21 205,-112.21"/>
<polygon fill="black" stroke="black" points="208.5,-112.21 205,-102.21 201.5,-112.21 208.5,-112.21"/>
</g>
<!-- n54 -->
<g id="node25" class="node">
<title>n54</title>
<ellipse fill="lightgrey" stroke="black" stroke-width="2.5" cx="1285" cy="-2474.53" rx="36" ry="36"/>
<text text-anchor="middle" x="1285" y="-2469.48" font-family="Courier New" font-size="14.00">ctl</text>
</g>
<!-- n52 -->
<g id="node30" class="node">
<title>n52</title>
<polygon fill="#9dddea" stroke="#9dddea" stroke-width="2.5" points="1334.25,-2402.53 1235.75,-2402.53 1235.75,-2330.53 1334.25,-2330.53 1334.25,-2402.53"/>
<text text-anchor="middle" x="1285" y="-2361.48" font-family="Courier New" font-size="14.00">Gas factor</text>
</g>
<!-- n54&#45;&gt;n52 -->
<g id="edge22" class="edge">
<title>n54&#45;&gt;n52</title>
<path fill="none" stroke="black" d="M1285,-2437.67C1285,-2437.67 1285,-2414.75 1285,-2414.75"/>
<polygon fill="black" stroke="black" points="1288.5,-2414.75 1285,-2404.75 1281.5,-2414.75 1288.5,-2414.75"/>
</g>
<!-- n53 -->
<g id="node26" class="node">
<title>n53</title>
<ellipse fill="lightgrey" stroke="black" stroke-width="2.5" cx="1375" cy="-2474.53" rx="36" ry="36"/>
<text text-anchor="middle" x="1375" y="-2469.48" font-family="Courier New" font-size="14.00">time</text>
</g>
<!-- n53&#45;&gt;n52 -->
<g id="edge23" class="edge">
<title>n53&#45;&gt;n52</title>
<path fill="none" stroke="black" d="M1338.14,-2475C1332.02,-2475 1327.62,-2475 1327.62,-2475 1327.62,-2475 1327.62,-2414.77 1327.62,-2414.77"/>
<polygon fill="black" stroke="black" points="1331.13,-2414.77 1327.63,-2404.77 1324.13,-2414.77 1331.13,-2414.77"/>
</g>
<!-- n55 -->
<g id="node27" class="node">
<title>n55</title>
<ellipse fill="lightgrey" stroke="black" stroke-width="2.5" cx="1285" cy="-2237.77" rx="56.76" ry="56.76"/>
<text text-anchor="middle" x="1285" y="-2232.72" font-family="Courier New" font-size="14.00">composition</text>
</g>
<!-- n14 -->
<g id="node31" class="node">
<title>n14</title>
<ellipse fill="lightgrey" stroke="black" stroke-width="2.5" cx="1285" cy="-1945.1" rx="109.4" ry="109.4"/>
<text text-anchor="middle" x="1285" y="-1940.05" font-family="Courier New" font-size="14.00">habitat_gas_composition</text>
</g>
<!-- n55&#45;&gt;n14 -->
<g id="edge45" class="edge">
<title>n55&#45;&gt;n14</title>
<path fill="none" stroke="#e437ea" stroke-width="2" d="M1285,-2180.3C1285,-2180.3 1285,-2068.5 1285,-2068.5"/>
<polygon fill="#e437ea" stroke="#e437ea" stroke-width="2" points="1288.5,-2068.5 1285,-2058.5 1281.5,-2068.5 1288.5,-2068.5"/>
</g>
<!-- n56 -->
<g id="node28" class="node">
<title>n56</title>
<ellipse fill="lightgrey" stroke="black" stroke-width="2.5" cx="1403" cy="-2237.77" rx="43.6" ry="43.6"/>
<text text-anchor="middle" x="1403" y="-2232.72" font-family="Courier New" font-size="14.00">humidity</text>
</g>
<!-- n13 -->
<g id="node32" class="node">
<title>n13</title>
<ellipse fill="lightgrey" stroke="black" stroke-width="2.5" cx="1509" cy="-1945.1" rx="96.24" ry="96.24"/>
<text text-anchor="middle" x="1509" y="-1940.05" font-family="Courier New" font-size="14.00">habitat_gas_humidity</text>
</g>
<!-- n56&#45;&gt;n13 -->
<g id="edge46" class="edge">
<title>n56&#45;&gt;n13</title>
<path fill="none" stroke="#e437ea" stroke-width="2" d="M1429.68,-2202.18C1429.68,-2202.18 1429.68,-2014.24 1429.68,-2014.24"/>
<polygon fill="#e437ea" stroke="#e437ea" stroke-width="2" points="1433.18,-2014.24 1429.68,-2004.24 1426.18,-2014.24 1433.18,-2014.24"/>
</g>
<!-- n57 -->
<g id="node29" class="node">
<title>n57</title>
<ellipse fill="lightgrey" stroke="black" stroke-width="2.5" cx="1153" cy="-2237.77" rx="56.76" ry="56.76"/>
<text text-anchor="middle" x="1153" y="-2232.72" font-family="Courier New" font-size="14.00">temperature</text>
</g>
<!-- n57&#45;&gt;n24 -->
<g id="edge48" class="edge">
<title>n57&#45;&gt;n24</title>
<path fill="none" stroke="#e437ea" stroke-width="2" d="M1095.36,-2238C898.36,-2238 264,-2238 264,-2238 264,-2238 264,-1263.53 264,-1263.53"/>
<polygon fill="#e437ea" stroke="#e437ea" stroke-width="2" points="267.5,-1263.53 264,-1253.53 260.5,-1263.53 267.5,-1263.53"/>
</g>
<!-- n12 -->
<g id="node33" class="node">
<title>n12</title>
<ellipse fill="lightgrey" stroke="black" stroke-width="2.5" cx="1048" cy="-1945.1" rx="109.4" ry="109.4"/>
<text text-anchor="middle" x="1048" y="-1940.05" font-family="Courier New" font-size="14.00">habitat_gas_temperature</text>
</g>
<!-- n57&#45;&gt;n12 -->
<g id="edge47" class="edge">
<title>n57&#45;&gt;n12</title>
<path fill="none" stroke="#e437ea" stroke-width="2" d="M1126.82,-2186.46C1126.82,-2186.46 1126.82,-2035.29 1126.82,-2035.29"/>
<polygon fill="#e437ea" stroke="#e437ea" stroke-width="2" points="1130.32,-2035.29 1126.82,-2025.29 1123.32,-2035.29 1130.32,-2035.29"/>
</g>
<!-- n52&#45;&gt;n55 -->
<g id="edge24" class="edge">
<title>n52&#45;&gt;n55</title>
<path fill="none" stroke="black" d="M1285,-2329.63C1285,-2329.63 1285,-2306.85 1285,-2306.85"/>
<polygon fill="black" stroke="black" points="1288.5,-2306.85 1285,-2296.85 1281.5,-2306.85 1288.5,-2306.85"/>
</g>
<!-- n52&#45;&gt;n56 -->
<g id="edge25" class="edge">
<title>n52&#45;&gt;n56</title>
<path fill="none" stroke="black" d="M1335.1,-2367C1360.15,-2367 1385.2,-2367 1385.2,-2367 1385.2,-2367 1385.2,-2290.17 1385.2,-2290.17"/>
<polygon fill="black" stroke="black" points="1388.7,-2290.17 1385.2,-2280.17 1381.7,-2290.17 1388.7,-2290.17"/>
</g>
<!-- n52&#45;&gt;n57 -->
<g id="edge26" class="edge">
<title>n52&#45;&gt;n57</title>
<path fill="none" stroke="black" d="M1235.1,-2367C1197.72,-2367 1153,-2367 1153,-2367 1153,-2367 1153,-2306.72 1153,-2306.72"/>
<polygon fill="black" stroke="black" points="1156.5,-2306.72 1153,-2296.72 1149.5,-2306.72 1156.5,-2306.72"/>
</g>
<!-- n10 -->
<g id="node42" class="node">
<title>n10</title>
<polygon fill="#9dddea" stroke="#9dddea" stroke-width="2.5" points="1465.62,-1799.7 1342.38,-1799.7 1342.38,-1727.7 1465.62,-1727.7 1465.62,-1799.7"/>
<text text-anchor="middle" x="1404" y="-1758.65" font-family="Courier New" font-size="14.00">A human being</text>
</g>
<!-- n14&#45;&gt;n10 -->
<g id="edge27" class="edge">
<title>n14&#45;&gt;n10</title>
<path fill="none" stroke="black" d="M1368.39,-1872.89C1368.39,-1872.89 1368.39,-1811.82 1368.39,-1811.82"/>
<polygon fill="black" stroke="black" points="1371.89,-1811.82 1368.39,-1801.82 1364.89,-1811.82 1371.89,-1811.82"/>
</g>
<!-- n13&#45;&gt;n10 -->
<g id="edge28" class="edge">
<title>n13&#45;&gt;n10</title>
<path fill="none" stroke="black" d="M1439.19,-1877.56C1439.19,-1877.56 1439.19,-1812.03 1439.19,-1812.03"/>
<polygon fill="black" stroke="black" points="1442.69,-1812.03 1439.19,-1802.03 1435.69,-1812.03 1442.69,-1812.03"/>
</g>
<!-- n12&#45;&gt;n10 -->
<g id="edge29" class="edge">
<title>n12&#45;&gt;n10</title>
<path fill="none" stroke="black" d="M1131.81,-1873.56C1131.81,-1829.74 1131.81,-1782 1131.81,-1782 1131.81,-1782 1330.04,-1782 1330.04,-1782"/>
<polygon fill="black" stroke="black" points="1330.04,-1785.5 1340.04,-1782 1330.04,-1778.5 1330.04,-1785.5"/>
</g>
<!-- n11 -->
<g id="node34" class="node">
<title>n11</title>
<ellipse fill="lightgrey" stroke="black" stroke-width="2.5" cx="1706" cy="-1945.1" rx="83.08" ry="83.08"/>
<text text-anchor="middle" x="1706" y="-1940.05" font-family="Courier New" font-size="14.00">habitat_time_tick</text>
</g>
<!-- n11&#45;&gt;n10 -->
<g id="edge30" class="edge">
<title>n11&#45;&gt;n10</title>
<path fill="none" stroke="black" d="M1679.81,-1865.5C1679.81,-1821.64 1679.81,-1776 1679.81,-1776 1679.81,-1776 1478.1,-1776 1478.1,-1776"/>
<polygon fill="black" stroke="black" points="1478.1,-1772.5 1468.1,-1776 1478.1,-1779.5 1478.1,-1772.5"/>
</g>
<!-- n19 -->
<g id="node35" class="node">
<title>n19</title>
<ellipse fill="lightgrey" stroke="black" stroke-width="2.5" cx="1658" cy="-1577.91" rx="78.7" ry="78.7"/>
<text text-anchor="middle" x="1658" y="-1572.86" font-family="Courier New" font-size="14.00">body_temperature</text>
</g>
<!-- n19&#45;&gt;n31 -->
<g id="edge49" class="edge">
<title>n19&#45;&gt;n31</title>
<path fill="none" stroke="#e437ea" stroke-width="2" d="M1687.43,-1504C1713.13,-1504 1746.37,-1504 1746.37,-1504 1746.37,-1504 1746.37,-1233.68 1746.37,-1233.68"/>
<polygon fill="#e437ea" stroke="#e437ea" stroke-width="2" points="1749.87,-1233.68 1746.37,-1223.68 1742.87,-1233.68 1749.87,-1233.68"/>
</g>
<!-- n17 -->
<g id="node36" class="node">
<title>n17</title>
<ellipse fill="lightgrey" stroke="black" stroke-width="2.5" cx="1825" cy="-1577.91" rx="69.92" ry="69.92"/>
<text text-anchor="middle" x="1825" y="-1572.86" font-family="Courier New" font-size="14.00">brain_activity</text>
</g>
<!-- n17&#45;&gt;n29 -->
<g id="edge50" class="edge">
<title>n17&#45;&gt;n29</title>
<path fill="none" stroke="#e437ea" stroke-width="2" d="M1895.78,-1578C1956.15,-1578 2033.22,-1578 2033.22,-1578 2033.22,-1578 2033.22,-1244.24 2033.22,-1244.24"/>
<polygon fill="#e437ea" stroke="#e437ea" stroke-width="2" points="2036.72,-1244.24 2033.22,-1234.24 2029.72,-1244.24 2036.72,-1244.24"/>
</g>
<!-- n18 -->
<g id="node37" class="node">
<title>n18</title>
<ellipse fill="lightgrey" stroke="black" stroke-width="2.5" cx="825" cy="-1577.91" rx="96.24" ry="96.24"/>
<text text-anchor="middle" x="825" y="-1572.86" font-family="Courier New" font-size="14.00">brain_activity_trend</text>
</g>
<!-- n18&#45;&gt;n30 -->
<g id="edge51" class="edge">
<title>n18&#45;&gt;n30</title>
<path fill="none" stroke="#e437ea" stroke-width="2" d="M825,-1480.83C825,-1403.8 825,-1309 825,-1309 825,-1309 581.91,-1309 581.91,-1309"/>
<polygon fill="#e437ea" stroke="#e437ea" stroke-width="2" points="581.91,-1305.5 571.91,-1309 581.91,-1312.5 581.91,-1305.5"/>
</g>
<!-- n15 -->
<g id="node38" class="node">
<title>n15</title>
<ellipse fill="lightgrey" stroke="black" stroke-width="2.5" cx="1014" cy="-1577.91" rx="74.31" ry="74.31"/>
<text text-anchor="middle" x="1014" y="-1572.86" font-family="Courier New" font-size="14.00">breathing_phase</text>
</g>
<!-- n15&#45;&gt;n32 -->
<g id="edge52" class="edge">
<title>n15&#45;&gt;n32</title>
<path fill="none" stroke="#e437ea" stroke-width="2" d="M938.69,-1578C931.09,-1578 926.1,-1578 926.1,-1578 926.1,-1578 926.1,-1222.12 926.1,-1222.12"/>
<polygon fill="#e437ea" stroke="#e437ea" stroke-width="2" points="929.6,-1222.12 926.1,-1212.12 922.6,-1222.12 929.6,-1222.12"/>
</g>
<!-- n20 -->
<g id="node39" class="node">
<title>n20</title>
<ellipse fill="lightgrey" stroke="black" stroke-width="2.5" cx="1220" cy="-1577.91" rx="113.79" ry="113.79"/>
<text text-anchor="middle" x="1220" y="-1572.86" font-family="Courier New" font-size="14.00">heart_cardiac_activation</text>
</g>
<!-- n20&#45;&gt;n26 -->
<g id="edge53" class="edge">
<title>n20&#45;&gt;n26</title>
<path fill="none" stroke="#e437ea" stroke-width="2" d="M1193.82,-1466.23C1193.82,-1466.23 1193.82,-1331.86 1193.82,-1331.86"/>
<polygon fill="#e437ea" stroke="#e437ea" stroke-width="2" points="1197.32,-1331.86 1193.82,-1321.86 1190.32,-1331.86 1197.32,-1331.86"/>
</g>
<!-- n21 -->
<g id="node40" class="node">
<title>n21</title>
<ellipse fill="lightgrey" stroke="black" stroke-width="2.5" cx="1404" cy="-1577.91" rx="52.38" ry="52.38"/>
<text text-anchor="middle" x="1404" y="-1572.86" font-family="Courier New" font-size="14.00">heart_rate</text>
</g>
<!-- n21&#45;&gt;n25 -->
<g id="edge54" class="edge">
<title>n21&#45;&gt;n25</title>
<path fill="none" stroke="#e437ea" stroke-width="2" d="M1404,-1524.74C1404,-1524.74 1404,-1289.94 1404,-1289.94"/>
<polygon fill="#e437ea" stroke="#e437ea" stroke-width="2" points="1407.5,-1289.94 1404,-1279.94 1400.5,-1289.94 1407.5,-1289.94"/>
</g>
<!-- n16 -->
<g id="node41" class="node">
<title>n16</title>
<ellipse fill="lightgrey" stroke="black" stroke-width="2.5" cx="1518" cy="-1577.91" rx="43.6" ry="43.6"/>
<text text-anchor="middle" x="1518" y="-1572.86" font-family="Courier New" font-size="14.00">is_alive</text>
</g>
<!-- n16&#45;&gt;n28 -->
<g id="edge55" class="edge">
<title>n16&#45;&gt;n28</title>
<path fill="none" stroke="#e437ea" stroke-width="2" d="M1544.18,-1541.82C1544.18,-1541.82 1544.18,-1241.13 1544.18,-1241.13"/>
<polygon fill="#e437ea" stroke="#e437ea" stroke-width="2" points="1547.68,-1241.13 1544.18,-1231.13 1540.68,-1241.13 1547.68,-1241.13"/>
</g>
<!-- n10&#45;&gt;n19 -->
<g id="edge35" class="edge">
<title>n10&#45;&gt;n19</title>
<path fill="none" stroke="black" d="M1462.54,-1726.83C1462.54,-1691.33 1462.54,-1643 1462.54,-1643 1462.54,-1643 1600.66,-1643 1600.66,-1643"/>
<polygon fill="black" stroke="black" points="1600.66,-1646.5 1610.66,-1643 1600.66,-1639.5 1600.66,-1646.5"/>
</g>
<!-- n10&#45;&gt;n17 -->
<g id="edge33" class="edge">
<title>n10&#45;&gt;n17</title>
<path fill="none" stroke="black" d="M1466.44,-1752C1571.45,-1752 1772.08,-1752 1772.08,-1752 1772.08,-1752 1772.08,-1636.53 1772.08,-1636.53"/>
<polygon fill="black" stroke="black" points="1775.58,-1636.53 1772.08,-1626.53 1768.58,-1636.53 1775.58,-1636.53"/>
</g>
<!-- n10&#45;&gt;n18 -->
<g id="edge34" class="edge">
<title>n10&#45;&gt;n18</title>
<path fill="none" stroke="black" d="M1341.49,-1764C1191.77,-1764 825,-1764 825,-1764 825,-1764 825,-1686.56 825,-1686.56"/>
<polygon fill="black" stroke="black" points="828.5,-1686.56 825,-1676.56 821.5,-1686.56 828.5,-1686.56"/>
</g>
<!-- n10&#45;&gt;n15 -->
<g id="edge31" class="edge">
<title>n10&#45;&gt;n15</title>
<path fill="none" stroke="black" d="M1341.77,-1746C1231.66,-1746 1014,-1746 1014,-1746 1014,-1746 1014,-1664.62 1014,-1664.62"/>
<polygon fill="black" stroke="black" points="1017.5,-1664.62 1014,-1654.62 1010.5,-1664.62 1017.5,-1664.62"/>
</g>
<!-- n10&#45;&gt;n20 -->
<g id="edge36" class="edge">
<title>n10&#45;&gt;n20</title>
<path fill="none" stroke="black" d="M1347,-1726.96C1347,-1702.19 1347,-1674 1347,-1674 1347,-1674 1294.27,-1674 1294.27,-1674"/>
<polygon fill="black" stroke="black" points="1294.27,-1670.5 1284.27,-1674 1294.27,-1677.5 1294.27,-1670.5"/>
</g>
<!-- n10&#45;&gt;n21 -->
<g id="edge37" class="edge">
<title>n10&#45;&gt;n21</title>
<path fill="none" stroke="black" d="M1404,-1726.99C1404,-1726.99 1404,-1642.59 1404,-1642.59"/>
<polygon fill="black" stroke="black" points="1407.5,-1642.59 1404,-1632.59 1400.5,-1642.59 1407.5,-1642.59"/>
</g>
<!-- n10&#45;&gt;n16 -->
<g id="edge32" class="edge">
<title>n10&#45;&gt;n16</title>
<path fill="none" stroke="black" d="M1459.46,-1727.01C1459.46,-1672.89 1459.46,-1578 1459.46,-1578 1459.46,-1578 1462.12,-1578 1462.12,-1578"/>
<polygon fill="black" stroke="black" points="1462.12,-1581.5 1472.12,-1578 1462.12,-1574.5 1462.12,-1581.5"/>
</g>
<!-- n5 -->
<g id="node43" class="node">
<title>n5</title>
<ellipse fill="lightgrey" stroke="black" stroke-width="2.5" cx="1832" cy="-2474.53" rx="36" ry="36"/>
<text text-anchor="middle" x="1832" y="-2469.48" font-family="Courier New" font-size="14.00">ctl</text>
</g>
<!-- n4 -->
<g id="node47" class="node">
<title>n4</title>
<polygon fill="#9dddea" stroke="#9dddea" stroke-width="2.5" points="2049.62,-2402.53 1794.38,-2402.53 1794.38,-2330.53 2049.62,-2330.53 2049.62,-2402.53"/>
<text text-anchor="middle" x="1922" y="-2361.48" font-family="Courier New" font-size="14.00">Sun radiation exposure factor</text>
</g>
<!-- n5&#45;&gt;n4 -->
<g id="edge38" class="edge">
<title>n5&#45;&gt;n4</title>
<path fill="none" stroke="black" d="M1832,-2437.67C1832,-2437.67 1832,-2414.75 1832,-2414.75"/>
<polygon fill="black" stroke="black" points="1835.5,-2414.75 1832,-2404.75 1828.5,-2414.75 1835.5,-2414.75"/>
</g>
<!-- n6 -->
<g id="node44" class="node">
<title>n6</title>
<ellipse fill="lightgrey" stroke="black" stroke-width="2.5" cx="1922" cy="-2474.53" rx="36" ry="36"/>
<text text-anchor="middle" x="1922" y="-2469.48" font-family="Courier New" font-size="14.00">time</text>
</g>
<!-- n6&#45;&gt;n4 -->
<g id="edge39" class="edge">
<title>n6&#45;&gt;n4</title>
<path fill="none" stroke="black" d="M1922,-2437.67C1922,-2437.67 1922,-2414.75 1922,-2414.75"/>
<polygon fill="black" stroke="black" points="1925.5,-2414.75 1922,-2404.75 1918.5,-2414.75 1925.5,-2414.75"/>
</g>
<!-- n8 -->
<g id="node45" class="node">
<title>n8</title>
<ellipse fill="lightgrey" stroke="black" stroke-width="2.5" cx="1922" cy="-2237.77" rx="36" ry="36"/>
<text text-anchor="middle" x="1922" y="-2232.72" font-family="Courier New" font-size="14.00">lux</text>
</g>
<!-- n7 -->
<g id="node46" class="node">
<title>n7</title>
<ellipse fill="lightgrey" stroke="black" stroke-width="2.5" cx="2012" cy="-2237.77" rx="36" ry="36"/>
<text text-anchor="middle" x="2012" y="-2232.72" font-family="Courier New" font-size="14.00">uvi</text>
</g>
<!-- n7&#45;&gt;n27 -->
<g id="edge56" class="edge">
<title>n7&#45;&gt;n27</title>
<path fill="none" stroke="#e437ea" stroke-width="2" d="M2048.83,-2238C2131.56,-2238 2325,-2238 2325,-2238 2325,-2238 2325,-1228.7 2325,-1228.7"/>
<polygon fill="#e437ea" stroke="#e437ea" stroke-width="2" points="2328.5,-1228.7 2325,-1218.7 2321.5,-1228.7 2328.5,-1228.7"/>
</g>
<!-- n4&#45;&gt;n8 -->
<g id="edge41" class="edge">
<title>n4&#45;&gt;n8</title>
<path fill="none" stroke="black" d="M1922,-2329.63C1922,-2329.63 1922,-2286.19 1922,-2286.19"/>
<polygon fill="black" stroke="black" points="1925.5,-2286.19 1922,-2276.19 1918.5,-2286.19 1925.5,-2286.19"/>
</g>
<!-- n4&#45;&gt;n7 -->
<g id="edge40" class="edge">
<title>n4&#45;&gt;n7</title>
<path fill="none" stroke="black" d="M2012,-2329.63C2012,-2329.63 2012,-2286.19 2012,-2286.19"/>
<polygon fill="black" stroke="black" points="2015.5,-2286.19 2012,-2276.19 2008.5,-2286.19 2015.5,-2286.19"/>
</g>
<!-- n49 -->
<g id="node48" class="node">
<title>n49</title>
<ellipse fill="lightgrey" stroke="black" stroke-width="2.5" cx="1706" cy="-2889.03" rx="36" ry="36"/>
<text text-anchor="middle" x="1706" y="-2883.98" font-family="Courier New" font-size="14.00">ctl</text>
</g>
<!-- n48 -->
<g id="node50" class="node">
<title>n48</title>
<polygon fill="#9dddea" stroke="#9dddea" stroke-width="2.5" points="1854.25,-2817.03 1557.75,-2817.03 1557.75,-2745.03 1854.25,-2745.03 1854.25,-2817.03"/>
<text text-anchor="middle" x="1706" y="-2775.98" font-family="Courier New" font-size="14.00">Time management for the simulation</text>
</g>
<!-- n49&#45;&gt;n48 -->
<g id="edge42" class="edge">
<title>n49&#45;&gt;n48</title>
<path fill="none" stroke="black" d="M1706,-2852.17C1706,-2852.17 1706,-2829.25 1706,-2829.25"/>
<polygon fill="black" stroke="black" points="1709.5,-2829.25 1706,-2819.25 1702.5,-2829.25 1709.5,-2829.25"/>
</g>
<!-- n50 -->
<g id="node49" class="node">
<title>n50</title>
<ellipse fill="lightgrey" stroke="black" stroke-width="2.5" cx="1706" cy="-2673.03" rx="36" ry="36"/>
<text text-anchor="middle" x="1706" y="-2667.98" font-family="Courier New" font-size="14.00">tick</text>
</g>
<!-- n50&#45;&gt;n53 -->
<g id="edge57" class="edge">
<title>n50&#45;&gt;n53</title>
<path fill="none" stroke="#e437ea" stroke-width="2" d="M1669.31,-2673C1583.13,-2673 1375,-2673 1375,-2673 1375,-2673 1375,-2524.42 1375,-2524.42"/>
<polygon fill="#e437ea" stroke="#e437ea" stroke-width="2" points="1378.5,-2524.42 1375,-2514.42 1371.5,-2524.42 1378.5,-2524.42"/>
</g>
<!-- n50&#45;&gt;n11 -->
<g id="edge59" class="edge">
<title>n50&#45;&gt;n11</title>
<path fill="none" stroke="#e437ea" stroke-width="2" d="M1706,-2636.44C1706,-2636.44 1706,-2041.99 1706,-2041.99"/>
<polygon fill="#e437ea" stroke="#e437ea" stroke-width="2" points="1709.5,-2041.99 1706,-2031.99 1702.5,-2041.99 1709.5,-2041.99"/>
</g>
<!-- n50&#45;&gt;n6 -->
<g id="edge58" class="edge">
<title>n50&#45;&gt;n6</title>
<path fill="none" stroke="#e437ea" stroke-width="2" d="M1742.64,-2673C1804.27,-2673 1922,-2673 1922,-2673 1922,-2673 1922,-2524.42 1922,-2524.42"/>
<polygon fill="#e437ea" stroke="#e437ea" stroke-width="2" points="1925.5,-2524.42 1922,-2514.42 1918.5,-2524.42 1925.5,-2524.42"/>
</g>
<!-- n48&#45;&gt;n50 -->
<g id="edge43" class="edge">
<title>n48&#45;&gt;n50</title>
<path fill="none" stroke="black" d="M1706,-2744.17C1706,-2744.17 1706,-2721.25 1706,-2721.25"/>
<polygon fill="black" stroke="black" points="1709.5,-2721.25 1706,-2711.25 1702.5,-2721.25 1709.5,-2721.25"/>
</g>
</g>
</svg>
