<?xml version="1.0" encoding="UTF-8" standalone="no"?>
<!DOCTYPE svg PUBLIC "-//W3C//DTD SVG 1.1//EN"
 "http://www.w3.org/Graphics/SVG/1.1/DTD/svg11.dtd">
<!-- Generated by graphviz version 12.2.1 (20241206.2353)
 -->
<!-- Pages: 1 -->
<svg width="606pt" height="791pt"
 viewBox="0.00 0.00 606.00 791.00" xmlns="http://www.w3.org/2000/svg" xmlns:xlink="http://www.w3.org/1999/xlink">
<g id="graph0" class="graph" transform="scale(1 1) rotate(0) translate(4 787)">
<polygon fill="white" stroke="none" points="-4,4 -4,-787 602,-787 602,4 -4,4"/>
<g id="clust1" class="cluster">
<title>cluster_s1</title>
<polygon fill="#e2c6fc" stroke="black" stroke-dasharray="5,2" points="8,-662.25 8,-726.75 376,-726.75 376,-662.25 8,-662.25"/>
</g>
<g id="clust2" class="cluster">
<title>cluster_s8</title>
<path fill="none" stroke="black" stroke-width="5" d="M445,-8C445,-8 533,-8 533,-8 539,-8 545,-14 545,-20 545,-20 545,-348.5 545,-348.5 545,-354.5 539,-360.5 533,-360.5 533,-360.5 445,-360.5 445,-360.5 439,-360.5 433,-354.5 433,-348.5 433,-348.5 433,-20 433,-20 433,-14 439,-8 445,-8"/>
<text text-anchor="middle" x="489" y="-343.2" font-family="Times,serif" font-size="14.00">case</text>
</g>
<g id="clust3" class="cluster">
<title>cluster_s3</title>
<path fill="none" stroke="black" stroke-width="5" d="M400,-422.5C400,-422.5 578,-422.5 578,-422.5 584,-422.5 590,-428.5 590,-434.5 590,-434.5 590,-763 590,-763 590,-769 584,-775 578,-775 578,-775 400,-775 400,-775 394,-775 388,-769 388,-763 388,-763 388,-434.5 388,-434.5 388,-428.5 394,-422.5 400,-422.5"/>
<text text-anchor="middle" x="489" y="-757.7" font-family="Times,serif" font-size="14.00">concat</text>
</g>
<!-- n2 -->
<g id="node1" class="node">
<title>n2</title>
<text text-anchor="start" x="36.5" y="-689.45" font-family="Courier New" font-size="14.00">Description:</text>
<text text-anchor="start" x="149.5" y="-689.45" font-family="Courier New" font-size="14.00">A mesh with 2 components</text>
</g>
<!-- n10 -->
<g id="node2" class="node">
<title>n10</title>
<ellipse fill="lightgrey" stroke="black" stroke-width="2.5" cx="489" cy="-280" rx="36" ry="36"/>
<text text-anchor="middle" x="489" y="-274.95" font-family="Courier New" font-size="14.00">i1</text>
</g>
<!-- n9 -->
<g id="node4" class="node">
<title>n9</title>
<polygon fill="#9dddea" stroke="#9dddea" stroke-width="2.5" points="525,-208 453,-208 453,-136 525,-136 525,-208"/>
<text text-anchor="middle" x="489" y="-166.2" font-family="Courier New" font-size="14.00">ğ‘“</text>
</g>
<!-- n10&#45;&gt;n9 -->
<g id="edge1" class="edge">
<title>n10&#45;&gt;n9</title>
<path fill="none" stroke="black" d="M489,-243.13C489,-243.13 489,-220.21 489,-220.21"/>
<polygon fill="black" stroke="black" points="492.5,-220.21 489,-210.21 485.5,-220.21 492.5,-220.21"/>
</g>
<!-- n11 -->
<g id="node3" class="node">
<title>n11</title>
<ellipse fill="lightgrey" stroke="black" stroke-width="2.5" cx="489" cy="-64" rx="36" ry="36"/>
<text text-anchor="middle" x="489" y="-58.95" font-family="Courier New" font-size="14.00">res</text>
</g>
<!-- n9&#45;&gt;n11 -->
<g id="edge2" class="edge">
<title>n9&#45;&gt;n11</title>
<path fill="none" stroke="black" d="M489,-135.13C489,-135.13 489,-112.21 489,-112.21"/>
<polygon fill="black" stroke="black" points="492.5,-112.21 489,-102.21 485.5,-112.21 492.5,-112.21"/>
</g>
<!-- n5 -->
<g id="node5" class="node">
<title>n5</title>
<ellipse fill="lightgrey" stroke="black" stroke-width="2.5" cx="444" cy="-694.5" rx="36" ry="36"/>
<text text-anchor="middle" x="444" y="-689.45" font-family="Courier New" font-size="14.00">i1</text>
</g>
<!-- n4 -->
<g id="node8" class="node">
<title>n4</title>
<polygon fill="#9dddea" stroke="#9dddea" stroke-width="2.5" points="525,-622.5 453,-622.5 453,-550.5 525,-550.5 525,-622.5"/>
<text text-anchor="middle" x="489" y="-580.7" font-family="Courier New" font-size="14.00">ğ‘“</text>
</g>
<!-- n5&#45;&gt;n4 -->
<g id="edge3" class="edge">
<title>n5&#45;&gt;n4</title>
<path fill="none" stroke="black" d="M466.5,-665.27C466.5,-665.27 466.5,-635 466.5,-635"/>
<polygon fill="black" stroke="black" points="470,-635 466.5,-625 463,-635 470,-635"/>
</g>
<!-- n6 -->
<g id="node6" class="node">
<title>n6</title>
<ellipse fill="lightgrey" stroke="black" stroke-width="2.5" cx="534" cy="-694.5" rx="36" ry="36"/>
<text text-anchor="middle" x="534" y="-689.45" font-family="Courier New" font-size="14.00">i2</text>
</g>
<!-- n6&#45;&gt;n4 -->
<g id="edge4" class="edge">
<title>n6&#45;&gt;n4</title>
<path fill="none" stroke="black" d="M511.5,-665.27C511.5,-665.27 511.5,-635 511.5,-635"/>
<polygon fill="black" stroke="black" points="515,-635 511.5,-625 508,-635 515,-635"/>
</g>
<!-- n7 -->
<g id="node7" class="node">
<title>n7</title>
<ellipse fill="lightgrey" stroke="black" stroke-width="2.5" cx="489" cy="-478.5" rx="36" ry="36"/>
<text text-anchor="middle" x="489" y="-473.45" font-family="Courier New" font-size="14.00">res</text>
</g>
<!-- n7&#45;&gt;n10 -->
<g id="edge6" class="edge">
<title>n7&#45;&gt;n10</title>
<path fill="none" stroke="#e437ea" stroke-width="2" d="M489,-441.63C489,-441.63 489,-329.7 489,-329.7"/>
<polygon fill="#e437ea" stroke="#e437ea" stroke-width="2" points="492.5,-329.7 489,-319.7 485.5,-329.7 492.5,-329.7"/>
</g>
<!-- n4&#45;&gt;n7 -->
<g id="edge5" class="edge">
<title>n4&#45;&gt;n7</title>
<path fill="none" stroke="black" d="M489,-549.63C489,-549.63 489,-526.71 489,-526.71"/>
<polygon fill="black" stroke="black" points="492.5,-526.71 489,-516.71 485.5,-526.71 492.5,-526.71"/>
</g>
</g>
</svg>
