<?xml version="1.0" encoding="UTF-8" standalone="no"?>
<!DOCTYPE svg PUBLIC "-//W3C//DTD SVG 1.1//EN"
 "http://www.w3.org/Graphics/SVG/1.1/DTD/svg11.dtd">
<!-- Generated by graphviz version 12.2.1 (20241206.2353)
 -->
<!-- Pages: 1 -->
<svg width="947pt" height="1206pt"
 viewBox="0.00 0.00 947.00 1205.50" xmlns="http://www.w3.org/2000/svg" xmlns:xlink="http://www.w3.org/1999/xlink">
<g id="graph0" class="graph" transform="scale(1 1) rotate(0) translate(4 1201.5)">
<polygon fill="white" stroke="none" points="-4,4 -4,-1201.5 943,-1201.5 943,4 -4,4"/>
<g id="clust1" class="cluster">
<title>cluster_s1</title>
<polygon fill="#e2c6fc" stroke="black" stroke-dasharray="5,2" points="8,-1076.75 8,-1141.25 376,-1141.25 376,-1076.75 8,-1076.75"/>
</g>
<g id="clust2" class="cluster">
<title>cluster_s19</title>
<path fill="none" stroke="black" stroke-width="5" d="M400,-837C400,-837 488,-837 488,-837 494,-837 500,-843 500,-849 500,-849 500,-1177.5 500,-1177.5 500,-1183.5 494,-1189.5 488,-1189.5 488,-1189.5 400,-1189.5 400,-1189.5 394,-1189.5 388,-1183.5 388,-1177.5 388,-1177.5 388,-849 388,-849 388,-843 394,-837 400,-837"/>
<text text-anchor="middle" x="444" y="-1172.2" font-family="Times,serif" font-size="14.00">airbag&#45;ecu</text>
</g>
<g id="clust3" class="cluster">
<title>cluster_s11</title>
<path fill="none" stroke="black" stroke-width="5" d="M473,-422.5C473,-422.5 561,-422.5 561,-422.5 567,-422.5 573,-428.5 573,-434.5 573,-434.5 573,-763 573,-763 573,-769 567,-775 561,-775 561,-775 473,-775 473,-775 467,-775 461,-769 461,-763 461,-763 461,-434.5 461,-434.5 461,-428.5 467,-422.5 473,-422.5"/>
<text text-anchor="middle" x="517" y="-757.7" font-family="Times,serif" font-size="14.00">bus</text>
</g>
<g id="clust4" class="cluster">
<title>cluster_s23</title>
<path fill="none" stroke="black" stroke-width="5" d="M629,-8C629,-8 741,-8 741,-8 747,-8 753,-14 753,-20 753,-20 753,-348.5 753,-348.5 753,-354.5 747,-360.5 741,-360.5 741,-360.5 629,-360.5 629,-360.5 623,-360.5 617,-354.5 617,-348.5 617,-348.5 617,-20 617,-20 617,-14 623,-8 629,-8"/>
<text text-anchor="middle" x="685" y="-343.2" font-family="Times,serif" font-size="14.00">crash&#45;sensor&#45;front&#45;left</text>
</g>
<g id="clust5" class="cluster">
<title>cluster_s3</title>
<path fill="none" stroke="black" stroke-width="5" d="M779,-8C779,-8 919,-8 919,-8 925,-8 931,-14 931,-20 931,-20 931,-348.5 931,-348.5 931,-354.5 925,-360.5 919,-360.5 919,-360.5 779,-360.5 779,-360.5 773,-360.5 767,-354.5 767,-348.5 767,-348.5 767,-20 767,-20 767,-14 773,-8 779,-8"/>
<text text-anchor="middle" x="849" y="-343.2" font-family="Times,serif" font-size="14.00">door&#45;lock&#45;actuator&#45;rear&#45;left</text>
</g>
<g id="clust6" class="cluster">
<title>cluster_s15</title>
<path fill="none" stroke="black" stroke-width="5" d="M359,-8C359,-8 447,-8 447,-8 453,-8 459,-14 459,-20 459,-20 459,-348.5 459,-348.5 459,-354.5 453,-360.5 447,-360.5 447,-360.5 359,-360.5 359,-360.5 353,-360.5 347,-354.5 347,-348.5 347,-348.5 347,-20 347,-20 347,-14 353,-8 359,-8"/>
<text text-anchor="middle" x="403" y="-343.2" font-family="Times,serif" font-size="14.00">engine&#45;ecu</text>
</g>
<g id="clust7" class="cluster">
<title>cluster_s7</title>
<path fill="none" stroke="black" stroke-width="5" d="M479,-8C479,-8 567,-8 567,-8 573,-8 579,-14 579,-20 579,-20 579,-348.5 579,-348.5 579,-354.5 573,-360.5 567,-360.5 567,-360.5 479,-360.5 479,-360.5 473,-360.5 467,-354.5 467,-348.5 467,-348.5 467,-20 467,-20 467,-14 473,-8 479,-8"/>
<text text-anchor="middle" x="523" y="-343.2" font-family="Times,serif" font-size="14.00">obd</text>
</g>
<!-- n2 -->
<g id="node1" class="node">
<title>n2</title>
<text text-anchor="start" x="36.5" y="-1103.95" font-family="Courier New" font-size="14.00">Description:</text>
<text text-anchor="start" x="149.5" y="-1103.95" font-family="Courier New" font-size="14.00">A mesh with 6 components</text>
</g>
<!-- n21 -->
<g id="node2" class="node">
<title>n21</title>
<ellipse fill="lightgrey" stroke="black" stroke-width="2.5" cx="444" cy="-1109" rx="36" ry="36"/>
<text text-anchor="middle" x="444" y="-1103.95" font-family="Courier New" font-size="14.00">rx</text>
</g>
<!-- n20 -->
<g id="node4" class="node">
<title>n20</title>
<polygon fill="#9dddea" stroke="#9dddea" stroke-width="2.5" points="480,-1037 408,-1037 408,-965 480,-965 480,-1037"/>
<text text-anchor="middle" x="444" y="-995.2" font-family="Courier New" font-size="14.00">ğ‘“</text>
</g>
<!-- n21&#45;&gt;n20 -->
<g id="edge1" class="edge">
<title>n21&#45;&gt;n20</title>
<path fill="none" stroke="black" d="M444,-1072.13C444,-1072.13 444,-1049.21 444,-1049.21"/>
<polygon fill="black" stroke="black" points="447.5,-1049.21 444,-1039.21 440.5,-1049.21 447.5,-1049.21"/>
</g>
<!-- n22 -->
<g id="node3" class="node">
<title>n22</title>
<ellipse fill="lightgrey" stroke="black" stroke-width="2.5" cx="444" cy="-893" rx="36" ry="36"/>
<text text-anchor="middle" x="444" y="-887.95" font-family="Courier New" font-size="14.00">tx</text>
</g>
<!-- n13 -->
<g id="node5" class="node">
<title>n13</title>
<ellipse fill="lightgrey" stroke="black" stroke-width="2.5" cx="517" cy="-694.5" rx="36" ry="36"/>
<text text-anchor="middle" x="517" y="-689.45" font-family="Courier New" font-size="14.00">rx</text>
</g>
<!-- n22&#45;&gt;n13 -->
<g id="edge13" class="edge">
<title>n22&#45;&gt;n13</title>
<path fill="none" stroke="#e437ea" stroke-width="2" d="M469.75,-866.44C469.75,-816.37 469.75,-713 469.75,-713 469.75,-713 471.93,-713 471.93,-713"/>
<polygon fill="#e437ea" stroke="#e437ea" stroke-width="2" points="471.93,-716.5 481.93,-713 471.93,-709.5 471.93,-716.5"/>
</g>
<!-- n20&#45;&gt;n22 -->
<g id="edge2" class="edge">
<title>n20&#45;&gt;n22</title>
<path fill="none" stroke="black" d="M444,-964.13C444,-964.13 444,-941.21 444,-941.21"/>
<polygon fill="black" stroke="black" points="447.5,-941.21 444,-931.21 440.5,-941.21 447.5,-941.21"/>
</g>
<!-- n12 -->
<g id="node7" class="node">
<title>n12</title>
<polygon fill="#9dddea" stroke="#9dddea" stroke-width="2.5" points="553,-622.5 481,-622.5 481,-550.5 553,-550.5 553,-622.5"/>
<text text-anchor="middle" x="517" y="-580.7" font-family="Courier New" font-size="14.00">ğ‘“</text>
</g>
<!-- n13&#45;&gt;n12 -->
<g id="edge3" class="edge">
<title>n13&#45;&gt;n12</title>
<path fill="none" stroke="black" d="M517,-657.63C517,-657.63 517,-634.71 517,-634.71"/>
<polygon fill="black" stroke="black" points="520.5,-634.71 517,-624.71 513.5,-634.71 520.5,-634.71"/>
</g>
<!-- n14 -->
<g id="node6" class="node">
<title>n14</title>
<ellipse fill="lightgrey" stroke="black" stroke-width="2.5" cx="517" cy="-478.5" rx="36" ry="36"/>
<text text-anchor="middle" x="517" y="-473.45" font-family="Courier New" font-size="14.00">tx</text>
</g>
<!-- n14&#45;&gt;n21 -->
<g id="edge15" class="edge">
<title>n14&#45;&gt;n21</title>
<path fill="none" stroke="#e437ea" stroke-width="2" d="M482.36,-491C444.08,-491 387.75,-491 387.75,-491 387.75,-491 387.75,-1079 387.75,-1079 387.75,-1079 409.39,-1079 409.39,-1079"/>
<polygon fill="#e437ea" stroke="#e437ea" stroke-width="2" points="409.39,-1082.5 419.39,-1079 409.39,-1075.5 409.39,-1082.5"/>
</g>
<!-- n25 -->
<g id="node8" class="node">
<title>n25</title>
<ellipse fill="lightgrey" stroke="black" stroke-width="2.5" cx="673" cy="-280" rx="36" ry="36"/>
<text text-anchor="middle" x="673" y="-274.95" font-family="Courier New" font-size="14.00">rx</text>
</g>
<!-- n14&#45;&gt;n25 -->
<g id="edge16" class="edge">
<title>n14&#45;&gt;n25</title>
<path fill="none" stroke="#e437ea" stroke-width="2" d="M552.01,-467C598,-467 673,-467 673,-467 673,-467 673,-329.97 673,-329.97"/>
<polygon fill="#e437ea" stroke="#e437ea" stroke-width="2" points="676.5,-329.97 673,-319.97 669.5,-329.97 676.5,-329.97"/>
</g>
<!-- n5 -->
<g id="node11" class="node">
<title>n5</title>
<ellipse fill="lightgrey" stroke="black" stroke-width="2.5" cx="823" cy="-280" rx="36" ry="36"/>
<text text-anchor="middle" x="823" y="-274.95" font-family="Courier New" font-size="14.00">rx</text>
</g>
<!-- n14&#45;&gt;n5 -->
<g id="edge17" class="edge">
<title>n14&#45;&gt;n5</title>
<path fill="none" stroke="#e437ea" stroke-width="2" d="M551.8,-491C632.01,-491 823,-491 823,-491 823,-491 823,-329.78 823,-329.78"/>
<polygon fill="#e437ea" stroke="#e437ea" stroke-width="2" points="826.5,-329.78 823,-319.78 819.5,-329.78 826.5,-329.78"/>
</g>
<!-- n17 -->
<g id="node14" class="node">
<title>n17</title>
<ellipse fill="lightgrey" stroke="black" stroke-width="2.5" cx="403" cy="-280" rx="36" ry="36"/>
<text text-anchor="middle" x="403" y="-274.95" font-family="Courier New" font-size="14.00">rx</text>
</g>
<!-- n14&#45;&gt;n17 -->
<g id="edge14" class="edge">
<title>n14&#45;&gt;n17</title>
<path fill="none" stroke="#e437ea" stroke-width="2" d="M481.92,-467C455.39,-467 423.5,-467 423.5,-467 423.5,-467 423.5,-323.49 423.5,-323.49"/>
<polygon fill="#e437ea" stroke="#e437ea" stroke-width="2" points="427,-323.49 423.5,-313.49 420,-323.49 427,-323.49"/>
</g>
<!-- n9 -->
<g id="node17" class="node">
<title>n9</title>
<ellipse fill="lightgrey" stroke="black" stroke-width="2.5" cx="523" cy="-280" rx="36" ry="36"/>
<text text-anchor="middle" x="523" y="-274.95" font-family="Courier New" font-size="14.00">rx</text>
</g>
<!-- n14&#45;&gt;n9 -->
<g id="edge18" class="edge">
<title>n14&#45;&gt;n9</title>
<path fill="none" stroke="#e437ea" stroke-width="2" d="M520,-441.63C520,-441.63 520,-329.7 520,-329.7"/>
<polygon fill="#e437ea" stroke="#e437ea" stroke-width="2" points="523.5,-329.7 520,-319.7 516.5,-329.7 523.5,-329.7"/>
</g>
<!-- n12&#45;&gt;n14 -->
<g id="edge4" class="edge">
<title>n12&#45;&gt;n14</title>
<path fill="none" stroke="black" d="M517,-549.63C517,-549.63 517,-526.71 517,-526.71"/>
<polygon fill="black" stroke="black" points="520.5,-526.71 517,-516.71 513.5,-526.71 520.5,-526.71"/>
</g>
<!-- n24 -->
<g id="node10" class="node">
<title>n24</title>
<polygon fill="#9dddea" stroke="#9dddea" stroke-width="2.5" points="709,-208 637,-208 637,-136 709,-136 709,-208"/>
<text text-anchor="middle" x="673" y="-166.2" font-family="Courier New" font-size="14.00">ğ‘“</text>
</g>
<!-- n25&#45;&gt;n24 -->
<g id="edge5" class="edge">
<title>n25&#45;&gt;n24</title>
<path fill="none" stroke="black" d="M673,-243.13C673,-243.13 673,-220.21 673,-220.21"/>
<polygon fill="black" stroke="black" points="676.5,-220.21 673,-210.21 669.5,-220.21 676.5,-220.21"/>
</g>
<!-- n26 -->
<g id="node9" class="node">
<title>n26</title>
<ellipse fill="lightgrey" stroke="black" stroke-width="2.5" cx="673" cy="-64" rx="36" ry="36"/>
<text text-anchor="middle" x="673" y="-58.95" font-family="Courier New" font-size="14.00">tx</text>
</g>
<!-- n26&#45;&gt;n13 -->
<g id="edge19" class="edge">
<title>n26&#45;&gt;n13</title>
<path fill="none" stroke="#e437ea" stroke-width="2" d="M636.38,-64C617.34,-64 598,-64 598,-64 598,-64 598,-683 598,-683 598,-683 564.85,-683 564.85,-683"/>
<polygon fill="#e437ea" stroke="#e437ea" stroke-width="2" points="564.85,-679.5 554.85,-683 564.85,-686.5 564.85,-679.5"/>
</g>
<!-- n24&#45;&gt;n26 -->
<g id="edge6" class="edge">
<title>n24&#45;&gt;n26</title>
<path fill="none" stroke="black" d="M673,-135.13C673,-135.13 673,-112.21 673,-112.21"/>
<polygon fill="black" stroke="black" points="676.5,-112.21 673,-102.21 669.5,-112.21 676.5,-112.21"/>
</g>
<!-- n4 -->
<g id="node13" class="node">
<title>n4</title>
<polygon fill="#9dddea" stroke="#9dddea" stroke-width="2.5" points="859,-208 787,-208 787,-136 859,-136 859,-208"/>
<text text-anchor="middle" x="823" y="-166.2" font-family="Courier New" font-size="14.00">ğ‘“</text>
</g>
<!-- n5&#45;&gt;n4 -->
<g id="edge7" class="edge">
<title>n5&#45;&gt;n4</title>
<path fill="none" stroke="black" d="M823,-243.13C823,-243.13 823,-220.21 823,-220.21"/>
<polygon fill="black" stroke="black" points="826.5,-220.21 823,-210.21 819.5,-220.21 826.5,-220.21"/>
</g>
<!-- n6 -->
<g id="node12" class="node">
<title>n6</title>
<ellipse fill="lightgrey" stroke="black" stroke-width="2.5" cx="823" cy="-64" rx="36" ry="36"/>
<text text-anchor="middle" x="823" y="-58.95" font-family="Courier New" font-size="14.00">tx</text>
</g>
<!-- n6&#45;&gt;n13 -->
<g id="edge20" class="edge">
<title>n6&#45;&gt;n13</title>
<path fill="none" stroke="#e437ea" stroke-width="2" d="M786.38,-64C767.34,-64 748,-64 748,-64 748,-64 748,-707 748,-707 748,-707 564.61,-707 564.61,-707"/>
<polygon fill="#e437ea" stroke="#e437ea" stroke-width="2" points="564.61,-703.5 554.61,-707 564.61,-710.5 564.61,-703.5"/>
</g>
<!-- n4&#45;&gt;n6 -->
<g id="edge8" class="edge">
<title>n4&#45;&gt;n6</title>
<path fill="none" stroke="black" d="M823,-135.13C823,-135.13 823,-112.21 823,-112.21"/>
<polygon fill="black" stroke="black" points="826.5,-112.21 823,-102.21 819.5,-112.21 826.5,-112.21"/>
</g>
<!-- n16 -->
<g id="node16" class="node">
<title>n16</title>
<polygon fill="#9dddea" stroke="#9dddea" stroke-width="2.5" points="439,-208 367,-208 367,-136 439,-136 439,-208"/>
<text text-anchor="middle" x="403" y="-166.2" font-family="Courier New" font-size="14.00">ğ‘“</text>
</g>
<!-- n17&#45;&gt;n16 -->
<g id="edge9" class="edge">
<title>n17&#45;&gt;n16</title>
<path fill="none" stroke="black" d="M403,-243.13C403,-243.13 403,-220.21 403,-220.21"/>
<polygon fill="black" stroke="black" points="406.5,-220.21 403,-210.21 399.5,-220.21 406.5,-220.21"/>
</g>
<!-- n18 -->
<g id="node15" class="node">
<title>n18</title>
<ellipse fill="lightgrey" stroke="black" stroke-width="2.5" cx="403" cy="-64" rx="36" ry="36"/>
<text text-anchor="middle" x="403" y="-58.95" font-family="Courier New" font-size="14.00">tx</text>
</g>
<!-- n18&#45;&gt;n13 -->
<g id="edge21" class="edge">
<title>n18&#45;&gt;n13</title>
<path fill="none" stroke="#e437ea" stroke-width="2" d="M437.58,-52C444.27,-52 449.25,-52 449.25,-52 449.25,-52 449.25,-695 449.25,-695 449.25,-695 467.32,-695 467.32,-695"/>
<polygon fill="#e437ea" stroke="#e437ea" stroke-width="2" points="467.32,-698.5 477.32,-695 467.32,-691.5 467.32,-698.5"/>
</g>
<!-- n16&#45;&gt;n18 -->
<g id="edge10" class="edge">
<title>n16&#45;&gt;n18</title>
<path fill="none" stroke="black" d="M403,-135.13C403,-135.13 403,-112.21 403,-112.21"/>
<polygon fill="black" stroke="black" points="406.5,-112.21 403,-102.21 399.5,-112.21 406.5,-112.21"/>
</g>
<!-- n8 -->
<g id="node19" class="node">
<title>n8</title>
<polygon fill="#9dddea" stroke="#9dddea" stroke-width="2.5" points="559,-208 487,-208 487,-136 559,-136 559,-208"/>
<text text-anchor="middle" x="523" y="-166.2" font-family="Courier New" font-size="14.00">ğ‘“</text>
</g>
<!-- n9&#45;&gt;n8 -->
<g id="edge11" class="edge">
<title>n9&#45;&gt;n8</title>
<path fill="none" stroke="black" d="M523,-243.13C523,-243.13 523,-220.21 523,-220.21"/>
<polygon fill="black" stroke="black" points="526.5,-220.21 523,-210.21 519.5,-220.21 526.5,-220.21"/>
</g>
<!-- n10 -->
<g id="node18" class="node">
<title>n10</title>
<ellipse fill="lightgrey" stroke="black" stroke-width="2.5" cx="523" cy="-64" rx="36" ry="36"/>
<text text-anchor="middle" x="523" y="-58.95" font-family="Courier New" font-size="14.00">tx</text>
</g>
<!-- n10&#45;&gt;n13 -->
<g id="edge22" class="edge">
<title>n10&#45;&gt;n13</title>
<path fill="none" stroke="#e437ea" stroke-width="2" d="M488.28,-76C473.45,-76 459.5,-76 459.5,-76 459.5,-76 459.5,-677 459.5,-677 459.5,-677 471.53,-677 471.53,-677"/>
<polygon fill="#e437ea" stroke="#e437ea" stroke-width="2" points="471.53,-680.5 481.53,-677 471.53,-673.5 471.53,-680.5"/>
</g>
<!-- n8&#45;&gt;n10 -->
<g id="edge12" class="edge">
<title>n8&#45;&gt;n10</title>
<path fill="none" stroke="black" d="M523,-135.13C523,-135.13 523,-112.21 523,-112.21"/>
<polygon fill="black" stroke="black" points="526.5,-112.21 523,-102.21 519.5,-112.21 526.5,-112.21"/>
</g>
</g>
</svg>
