<?xml version="1.0" encoding="UTF-8" standalone="no"?>
<!DOCTYPE svg PUBLIC "-//W3C//DTD SVG 1.1//EN"
 "http://www.w3.org/Graphics/SVG/1.1/DTD/svg11.dtd">
<!-- Generated by graphviz version 12.2.1 (20241206.2353)
 -->
<!-- Pages: 1 -->
<svg width="642pt" height="2864pt"
 viewBox="0.00 0.00 642.00 2863.50" xmlns="http://www.w3.org/2000/svg" xmlns:xlink="http://www.w3.org/1999/xlink">
<g id="graph0" class="graph" transform="scale(1 1) rotate(0) translate(4 2859.5)">
<polygon fill="white" stroke="none" points="-4,4 -4,-2859.5 638,-2859.5 638,4 -4,4"/>
<g id="clust1" class="cluster">
<title>cluster_s1</title>
<polygon fill="#e2c6fc" stroke="black" stroke-dasharray="5,2" points="8,-2734.75 8,-2799.25 376,-2799.25 376,-2734.75 8,-2734.75"/>
</g>
<g id="clust2" class="cluster">
<title>cluster_s15</title>
<path fill="none" stroke="black" stroke-width="5" d="M441,-422.5C441,-422.5 573,-422.5 573,-422.5 579,-422.5 585,-428.5 585,-434.5 585,-434.5 585,-763 585,-763 585,-769 579,-775 573,-775 573,-775 441,-775 441,-775 435,-775 429,-769 429,-763 429,-763 429,-434.5 429,-434.5 429,-428.5 435,-422.5 441,-422.5"/>
<text text-anchor="middle" x="507" y="-757.7" font-family="Times,serif" font-size="14.00">counter&#45;tokens</text>
</g>
<g id="clust3" class="cluster">
<title>cluster_s27</title>
<path fill="none" stroke="black" stroke-width="5" d="M437,-2080.5C437,-2080.5 577,-2080.5 577,-2080.5 583,-2080.5 589,-2086.5 589,-2092.5 589,-2092.5 589,-2421 589,-2421 589,-2427 583,-2433 577,-2433 577,-2433 437,-2433 437,-2433 431,-2433 425,-2427 425,-2421 425,-2421 425,-2092.5 425,-2092.5 425,-2086.5 431,-2080.5 437,-2080.5"/>
<text text-anchor="middle" x="507" y="-2415.7" font-family="Times,serif" font-size="14.00">persist&#45;input</text>
</g>
<g id="clust4" class="cluster">
<title>cluster_s19</title>
<path fill="none" stroke="black" stroke-width="5" d="M437,-8C437,-8 577,-8 577,-8 583,-8 589,-14 589,-20 589,-20 589,-348.5 589,-348.5 589,-354.5 583,-360.5 577,-360.5 577,-360.5 437,-360.5 437,-360.5 431,-360.5 425,-354.5 425,-348.5 425,-348.5 425,-20 425,-20 425,-14 431,-8 437,-8"/>
<text text-anchor="middle" x="507" y="-343.2" font-family="Times,serif" font-size="14.00">persist&#45;results</text>
</g>
<g id="clust5" class="cluster">
<title>cluster_s3</title>
<path fill="none" stroke="black" stroke-width="5" d="M454,-1666C454,-1666 560,-1666 560,-1666 566,-1666 572,-1672 572,-1678 572,-1678 572,-2006.5 572,-2006.5 572,-2012.5 566,-2018.5 560,-2018.5 560,-2018.5 454,-2018.5 454,-2018.5 448,-2018.5 442,-2012.5 442,-2006.5 442,-2006.5 442,-1678 442,-1678 442,-1672 448,-1666 454,-1666"/>
<text text-anchor="middle" x="507" y="-2001.2" font-family="Times,serif" font-size="14.00">read&#45;file</text>
</g>
<g id="clust6" class="cluster">
<title>cluster_s23</title>
<path fill="none" stroke="black" stroke-width="5" d="M400,-2495C400,-2495 614,-2495 614,-2495 620,-2495 626,-2501 626,-2507 626,-2507 626,-2835.5 626,-2835.5 626,-2841.5 620,-2847.5 614,-2847.5 614,-2847.5 400,-2847.5 400,-2847.5 394,-2847.5 388,-2841.5 388,-2835.5 388,-2835.5 388,-2507 388,-2507 388,-2501 394,-2495 400,-2495"/>
<text text-anchor="middle" x="507" y="-2830.2" font-family="Times,serif" font-size="14.00">read&#45;stdin</text>
</g>
<g id="clust7" class="cluster">
<title>cluster_s11</title>
<path fill="none" stroke="black" stroke-width="5" d="M437,-837C437,-837 577,-837 577,-837 583,-837 589,-843 589,-849 589,-849 589,-1177.5 589,-1177.5 589,-1183.5 583,-1189.5 577,-1189.5 577,-1189.5 437,-1189.5 437,-1189.5 431,-1189.5 425,-1183.5 425,-1177.5 425,-1177.5 425,-849 425,-849 425,-843 431,-837 437,-837"/>
<text text-anchor="middle" x="507" y="-1172.2" font-family="Times,serif" font-size="14.00">remove&#45;stop&#45;words</text>
</g>
<g id="clust8" class="cluster">
<title>cluster_s7</title>
<path fill="none" stroke="black" stroke-width="5" d="M437,-1251.5C437,-1251.5 577,-1251.5 577,-1251.5 583,-1251.5 589,-1257.5 589,-1263.5 589,-1263.5 589,-1592 589,-1592 589,-1598 583,-1604 577,-1604 577,-1604 437,-1604 437,-1604 431,-1604 425,-1598 425,-1592 425,-1592 425,-1263.5 425,-1263.5 425,-1257.5 431,-1251.5 437,-1251.5"/>
<text text-anchor="middle" x="507" y="-1586.7" font-family="Times,serif" font-size="14.00">tokenize</text>
</g>
<!-- n2 -->
<g id="node1" class="node">
<title>n2</title>
<text text-anchor="start" x="36.5" y="-2761.95" font-family="Courier New" font-size="14.00">Description:</text>
<text text-anchor="start" x="149.5" y="-2761.95" font-family="Courier New" font-size="14.00">A mesh with 7 components</text>
</g>
<!-- n17 -->
<g id="node2" class="node">
<title>n17</title>
<ellipse fill="lightgrey" stroke="black" stroke-width="2.5" cx="507" cy="-694.5" rx="36" ry="36"/>
<text text-anchor="middle" x="507" y="-689.45" font-family="Courier New" font-size="14.00">in</text>
</g>
<!-- n16 -->
<g id="node4" class="node">
<title>n16</title>
<polygon fill="#9dddea" stroke="#9dddea" stroke-width="2.5" points="564.5,-622.5 449.5,-622.5 449.5,-550.5 564.5,-550.5 564.5,-622.5"/>
<text text-anchor="middle" x="507" y="-581.45" font-family="Courier New" font-size="14.00">count tokens</text>
</g>
<!-- n17&#45;&gt;n16 -->
<g id="edge1" class="edge">
<title>n17&#45;&gt;n16</title>
<path fill="none" stroke="black" d="M507,-657.63C507,-657.63 507,-634.71 507,-634.71"/>
<polygon fill="black" stroke="black" points="510.5,-634.71 507,-624.71 503.5,-634.71 510.5,-634.71"/>
</g>
<!-- n18 -->
<g id="node3" class="node">
<title>n18</title>
<ellipse fill="lightgrey" stroke="black" stroke-width="2.5" cx="507" cy="-478.5" rx="36" ry="36"/>
<text text-anchor="middle" x="507" y="-473.45" font-family="Courier New" font-size="14.00">out</text>
</g>
<!-- n21 -->
<g id="node8" class="node">
<title>n21</title>
<ellipse fill="lightgrey" stroke="black" stroke-width="2.5" cx="507" cy="-280" rx="36" ry="36"/>
<text text-anchor="middle" x="507" y="-274.95" font-family="Courier New" font-size="14.00">in</text>
</g>
<!-- n18&#45;&gt;n21 -->
<g id="edge15" class="edge">
<title>n18&#45;&gt;n21</title>
<path fill="none" stroke="#e437ea" stroke-width="2" d="M507,-441.63C507,-441.63 507,-329.7 507,-329.7"/>
<polygon fill="#e437ea" stroke="#e437ea" stroke-width="2" points="510.5,-329.7 507,-319.7 503.5,-329.7 510.5,-329.7"/>
</g>
<!-- n16&#45;&gt;n18 -->
<g id="edge2" class="edge">
<title>n16&#45;&gt;n18</title>
<path fill="none" stroke="black" d="M507,-549.63C507,-549.63 507,-526.71 507,-526.71"/>
<polygon fill="black" stroke="black" points="510.5,-526.71 507,-516.71 503.5,-526.71 510.5,-526.71"/>
</g>
<!-- n29 -->
<g id="node5" class="node">
<title>n29</title>
<ellipse fill="lightgrey" stroke="black" stroke-width="2.5" cx="507" cy="-2352.5" rx="36" ry="36"/>
<text text-anchor="middle" x="507" y="-2347.45" font-family="Courier New" font-size="14.00">in</text>
</g>
<!-- n28 -->
<g id="node7" class="node">
<title>n28</title>
<polygon fill="#9dddea" stroke="#9dddea" stroke-width="2.5" points="568.62,-2280.5 445.38,-2280.5 445.38,-2208.5 568.62,-2208.5 568.62,-2280.5"/>
<text text-anchor="middle" x="507" y="-2239.45" font-family="Courier New" font-size="14.00">write to file</text>
</g>
<!-- n29&#45;&gt;n28 -->
<g id="edge3" class="edge">
<title>n29&#45;&gt;n28</title>
<path fill="none" stroke="black" d="M507,-2315.63C507,-2315.63 507,-2292.71 507,-2292.71"/>
<polygon fill="black" stroke="black" points="510.5,-2292.71 507,-2282.71 503.5,-2292.71 510.5,-2292.71"/>
</g>
<!-- n30 -->
<g id="node6" class="node">
<title>n30</title>
<ellipse fill="lightgrey" stroke="black" stroke-width="2.5" cx="507" cy="-2136.5" rx="36" ry="36"/>
<text text-anchor="middle" x="507" y="-2131.45" font-family="Courier New" font-size="14.00">out</text>
</g>
<!-- n5 -->
<g id="node11" class="node">
<title>n5</title>
<ellipse fill="lightgrey" stroke="black" stroke-width="2.5" cx="507" cy="-1938" rx="36" ry="36"/>
<text text-anchor="middle" x="507" y="-1932.95" font-family="Courier New" font-size="14.00">in</text>
</g>
<!-- n30&#45;&gt;n5 -->
<g id="edge16" class="edge">
<title>n30&#45;&gt;n5</title>
<path fill="none" stroke="#e437ea" stroke-width="2" d="M507,-2099.63C507,-2099.63 507,-1987.7 507,-1987.7"/>
<polygon fill="#e437ea" stroke="#e437ea" stroke-width="2" points="510.5,-1987.7 507,-1977.7 503.5,-1987.7 510.5,-1987.7"/>
</g>
<!-- n28&#45;&gt;n30 -->
<g id="edge4" class="edge">
<title>n28&#45;&gt;n30</title>
<path fill="none" stroke="black" d="M507,-2207.63C507,-2207.63 507,-2184.71 507,-2184.71"/>
<polygon fill="black" stroke="black" points="510.5,-2184.71 507,-2174.71 503.5,-2184.71 510.5,-2184.71"/>
</g>
<!-- n20 -->
<g id="node10" class="node">
<title>n20</title>
<polygon fill="#9dddea" stroke="#9dddea" stroke-width="2.5" points="568.62,-208 445.38,-208 445.38,-136 568.62,-136 568.62,-208"/>
<text text-anchor="middle" x="507" y="-166.95" font-family="Courier New" font-size="14.00">write to file</text>
</g>
<!-- n21&#45;&gt;n20 -->
<g id="edge5" class="edge">
<title>n21&#45;&gt;n20</title>
<path fill="none" stroke="black" d="M507,-243.13C507,-243.13 507,-220.21 507,-220.21"/>
<polygon fill="black" stroke="black" points="510.5,-220.21 507,-210.21 503.5,-220.21 510.5,-220.21"/>
</g>
<!-- n22 -->
<g id="node9" class="node">
<title>n22</title>
<ellipse fill="lightgrey" stroke="black" stroke-width="2.5" cx="507" cy="-64" rx="36" ry="36"/>
<text text-anchor="middle" x="507" y="-58.95" font-family="Courier New" font-size="14.00">out</text>
</g>
<!-- n20&#45;&gt;n22 -->
<g id="edge6" class="edge">
<title>n20&#45;&gt;n22</title>
<path fill="none" stroke="black" d="M507,-135.13C507,-135.13 507,-112.21 507,-112.21"/>
<polygon fill="black" stroke="black" points="510.5,-112.21 507,-102.21 503.5,-112.21 510.5,-112.21"/>
</g>
<!-- n4 -->
<g id="node13" class="node">
<title>n4</title>
<polygon fill="#9dddea" stroke="#9dddea" stroke-width="2.5" points="552.12,-1866 461.88,-1866 461.88,-1794 552.12,-1794 552.12,-1866"/>
<text text-anchor="middle" x="507" y="-1824.95" font-family="Courier New" font-size="14.00">read file</text>
</g>
<!-- n5&#45;&gt;n4 -->
<g id="edge7" class="edge">
<title>n5&#45;&gt;n4</title>
<path fill="none" stroke="black" d="M507,-1901.13C507,-1901.13 507,-1878.21 507,-1878.21"/>
<polygon fill="black" stroke="black" points="510.5,-1878.21 507,-1868.21 503.5,-1878.21 510.5,-1878.21"/>
</g>
<!-- n6 -->
<g id="node12" class="node">
<title>n6</title>
<ellipse fill="lightgrey" stroke="black" stroke-width="2.5" cx="507" cy="-1722" rx="36" ry="36"/>
<text text-anchor="middle" x="507" y="-1716.95" font-family="Courier New" font-size="14.00">out</text>
</g>
<!-- n9 -->
<g id="node20" class="node">
<title>n9</title>
<ellipse fill="lightgrey" stroke="black" stroke-width="2.5" cx="507" cy="-1523.5" rx="36" ry="36"/>
<text text-anchor="middle" x="507" y="-1518.45" font-family="Courier New" font-size="14.00">in</text>
</g>
<!-- n6&#45;&gt;n9 -->
<g id="edge17" class="edge">
<title>n6&#45;&gt;n9</title>
<path fill="none" stroke="#e437ea" stroke-width="2" d="M507,-1685.13C507,-1685.13 507,-1573.2 507,-1573.2"/>
<polygon fill="#e437ea" stroke="#e437ea" stroke-width="2" points="510.5,-1573.2 507,-1563.2 503.5,-1573.2 510.5,-1573.2"/>
</g>
<!-- n4&#45;&gt;n6 -->
<g id="edge8" class="edge">
<title>n4&#45;&gt;n6</title>
<path fill="none" stroke="black" d="M507,-1793.13C507,-1793.13 507,-1770.21 507,-1770.21"/>
<polygon fill="black" stroke="black" points="510.5,-1770.21 507,-1760.21 503.5,-1770.21 510.5,-1770.21"/>
</g>
<!-- n25 -->
<g id="node14" class="node">
<title>n25</title>
<ellipse fill="lightgrey" stroke="black" stroke-width="2.5" cx="507" cy="-2767" rx="36" ry="36"/>
<text text-anchor="middle" x="507" y="-2761.95" font-family="Courier New" font-size="14.00">in</text>
</g>
<!-- n24 -->
<g id="node16" class="node">
<title>n24</title>
<polygon fill="#9dddea" stroke="#9dddea" stroke-width="2.5" points="605.75,-2695 408.25,-2695 408.25,-2623 605.75,-2623 605.75,-2695"/>
<text text-anchor="middle" x="507" y="-2653.95" font-family="Courier New" font-size="14.00">read a line from stdin</text>
</g>
<!-- n25&#45;&gt;n24 -->
<g id="edge9" class="edge">
<title>n25&#45;&gt;n24</title>
<path fill="none" stroke="black" d="M507,-2730.13C507,-2730.13 507,-2707.21 507,-2707.21"/>
<polygon fill="black" stroke="black" points="510.5,-2707.21 507,-2697.21 503.5,-2707.21 510.5,-2707.21"/>
</g>
<!-- n26 -->
<g id="node15" class="node">
<title>n26</title>
<ellipse fill="lightgrey" stroke="black" stroke-width="2.5" cx="507" cy="-2551" rx="36" ry="36"/>
<text text-anchor="middle" x="507" y="-2545.95" font-family="Courier New" font-size="14.00">out</text>
</g>
<!-- n26&#45;&gt;n29 -->
<g id="edge18" class="edge">
<title>n26&#45;&gt;n29</title>
<path fill="none" stroke="#e437ea" stroke-width="2" d="M507,-2514.13C507,-2514.13 507,-2402.2 507,-2402.2"/>
<polygon fill="#e437ea" stroke="#e437ea" stroke-width="2" points="510.5,-2402.2 507,-2392.2 503.5,-2402.2 510.5,-2402.2"/>
</g>
<!-- n24&#45;&gt;n26 -->
<g id="edge10" class="edge">
<title>n24&#45;&gt;n26</title>
<path fill="none" stroke="black" d="M507,-2622.13C507,-2622.13 507,-2599.21 507,-2599.21"/>
<polygon fill="black" stroke="black" points="510.5,-2599.21 507,-2589.21 503.5,-2599.21 510.5,-2599.21"/>
</g>
<!-- n13 -->
<g id="node17" class="node">
<title>n13</title>
<ellipse fill="lightgrey" stroke="black" stroke-width="2.5" cx="507" cy="-1109" rx="36" ry="36"/>
<text text-anchor="middle" x="507" y="-1103.95" font-family="Courier New" font-size="14.00">in</text>
</g>
<!-- n12 -->
<g id="node19" class="node">
<title>n12</title>
<polygon fill="#9dddea" stroke="#9dddea" stroke-width="2.5" points="568.62,-1037 445.38,-1037 445.38,-965 568.62,-965 568.62,-1037"/>
<text text-anchor="middle" x="507" y="-995.95" font-family="Courier New" font-size="14.00">filter&#45;tokens</text>
</g>
<!-- n13&#45;&gt;n12 -->
<g id="edge11" class="edge">
<title>n13&#45;&gt;n12</title>
<path fill="none" stroke="black" d="M507,-1072.13C507,-1072.13 507,-1049.21 507,-1049.21"/>
<polygon fill="black" stroke="black" points="510.5,-1049.21 507,-1039.21 503.5,-1049.21 510.5,-1049.21"/>
</g>
<!-- n14 -->
<g id="node18" class="node">
<title>n14</title>
<ellipse fill="lightgrey" stroke="black" stroke-width="2.5" cx="507" cy="-893" rx="36" ry="36"/>
<text text-anchor="middle" x="507" y="-887.95" font-family="Courier New" font-size="14.00">out</text>
</g>
<!-- n14&#45;&gt;n17 -->
<g id="edge19" class="edge">
<title>n14&#45;&gt;n17</title>
<path fill="none" stroke="#e437ea" stroke-width="2" d="M507,-856.13C507,-856.13 507,-744.2 507,-744.2"/>
<polygon fill="#e437ea" stroke="#e437ea" stroke-width="2" points="510.5,-744.2 507,-734.2 503.5,-744.2 510.5,-744.2"/>
</g>
<!-- n12&#45;&gt;n14 -->
<g id="edge12" class="edge">
<title>n12&#45;&gt;n14</title>
<path fill="none" stroke="black" d="M507,-964.13C507,-964.13 507,-941.21 507,-941.21"/>
<polygon fill="black" stroke="black" points="510.5,-941.21 507,-931.21 503.5,-941.21 510.5,-941.21"/>
</g>
<!-- n8 -->
<g id="node22" class="node">
<title>n8</title>
<polygon fill="#9dddea" stroke="#9dddea" stroke-width="2.5" points="568.62,-1451.5 445.38,-1451.5 445.38,-1379.5 568.62,-1379.5 568.62,-1451.5"/>
<text text-anchor="middle" x="507" y="-1410.45" font-family="Courier New" font-size="14.00">tokenize text</text>
</g>
<!-- n9&#45;&gt;n8 -->
<g id="edge13" class="edge">
<title>n9&#45;&gt;n8</title>
<path fill="none" stroke="black" d="M507,-1486.63C507,-1486.63 507,-1463.71 507,-1463.71"/>
<polygon fill="black" stroke="black" points="510.5,-1463.71 507,-1453.71 503.5,-1463.71 510.5,-1463.71"/>
</g>
<!-- n10 -->
<g id="node21" class="node">
<title>n10</title>
<ellipse fill="lightgrey" stroke="black" stroke-width="2.5" cx="507" cy="-1307.5" rx="36" ry="36"/>
<text text-anchor="middle" x="507" y="-1302.45" font-family="Courier New" font-size="14.00">out</text>
</g>
<!-- n10&#45;&gt;n13 -->
<g id="edge20" class="edge">
<title>n10&#45;&gt;n13</title>
<path fill="none" stroke="#e437ea" stroke-width="2" d="M507,-1270.63C507,-1270.63 507,-1158.7 507,-1158.7"/>
<polygon fill="#e437ea" stroke="#e437ea" stroke-width="2" points="510.5,-1158.7 507,-1148.7 503.5,-1158.7 510.5,-1158.7"/>
</g>
<!-- n8&#45;&gt;n10 -->
<g id="edge14" class="edge">
<title>n8&#45;&gt;n10</title>
<path fill="none" stroke="black" d="M507,-1378.63C507,-1378.63 507,-1355.71 507,-1355.71"/>
<polygon fill="black" stroke="black" points="510.5,-1355.71 507,-1345.71 503.5,-1355.71 510.5,-1355.71"/>
</g>
</g>
</svg>
