<?xml version="1.0" encoding="UTF-8" standalone="no"?>
<!DOCTYPE svg PUBLIC "-//W3C//DTD SVG 1.1//EN"
 "http://www.w3.org/Graphics/SVG/1.1/DTD/svg11.dtd">
<!-- Generated by graphviz version 12.2.1 (20241206.2353)
 -->
<!-- Pages: 1 -->
<svg width="1124pt" height="488pt"
 viewBox="0.00 0.00 1124.00 488.21" xmlns="http://www.w3.org/2000/svg" xmlns:xlink="http://www.w3.org/1999/xlink">
<g id="graph0" class="graph" transform="scale(1 1) rotate(0) translate(4 484.21)">
<polygon fill="white" stroke="none" points="-4,4 -4,-484.21 1120,-484.21 1120,4 -4,4"/>
<g id="clust1" class="cluster">
<title>cluster_s1</title>
<polygon fill="#e2c6fc" stroke="black" stroke-dasharray="5,2" points="8,-359.46 8,-423.96 376,-423.96 376,-359.46 8,-359.46"/>
</g>
<g id="clust2" class="cluster">
<title>cluster_s11</title>
<path fill="none" stroke="black" stroke-width="5" d="M400,-335.71C400,-335.71 598,-335.71 598,-335.71 604,-335.71 610,-341.71 610,-347.71 610,-347.71 610,-460.21 610,-460.21 610,-466.21 604,-472.21 598,-472.21 598,-472.21 400,-472.21 400,-472.21 394,-472.21 388,-466.21 388,-460.21 388,-460.21 388,-347.71 388,-347.71 388,-341.71 394,-335.71 400,-335.71"/>
<text text-anchor="middle" x="499" y="-454.91" font-family="Times,serif" font-size="14.00">body</text>
</g>
<g id="clust3" class="cluster">
<title>cluster_s7</title>
<path fill="none" stroke="black" stroke-width="5" d="M630,-8C630,-8 976,-8 976,-8 982,-8 988,-14 988,-20 988,-20 988,-460.21 988,-460.21 988,-466.21 982,-472.21 976,-472.21 976,-472.21 630,-472.21 630,-472.21 624,-472.21 618,-466.21 618,-460.21 618,-460.21 618,-20 618,-20 618,-14 624,-8 630,-8"/>
<text text-anchor="middle" x="803" y="-454.91" font-family="Times,serif" font-size="14.00">temperature</text>
</g>
<g id="clust4" class="cluster">
<title>cluster_s3</title>
<path fill="none" stroke="black" stroke-width="5" d="M1008,-63.86C1008,-63.86 1096,-63.86 1096,-63.86 1102,-63.86 1108,-69.86 1108,-75.86 1108,-75.86 1108,-460.21 1108,-460.21 1108,-466.21 1102,-472.21 1096,-472.21 1096,-472.21 1008,-472.21 1008,-472.21 1002,-472.21 996,-466.21 996,-460.21 996,-460.21 996,-75.86 996,-75.86 996,-69.86 1002,-63.86 1008,-63.86"/>
<text text-anchor="middle" x="1052" y="-454.91" font-family="Times,serif" font-size="14.00">time</text>
</g>
<!-- n2 -->
<g id="node1" class="node">
<title>n2</title>
<text text-anchor="start" x="36.5" y="-386.66" font-family="Courier New" font-size="14.00">Description:</text>
<text text-anchor="start" x="149.5" y="-386.66" font-family="Courier New" font-size="14.00">A mesh with 3 components</text>
</g>
<!-- n12 -->
<g id="node2" class="node">
<title>n12</title>
<polygon fill="#9dddea" stroke="#9dddea" stroke-width="2.5" points="589.5,-427.71 408.5,-427.71 408.5,-355.71 589.5,-355.71 589.5,-427.71"/>
<text text-anchor="middle" x="499" y="-386.66" font-family="Courier New" font-size="14.00">Human body component</text>
</g>
<!-- n9 -->
<g id="node3" class="node">
<title>n9</title>
<ellipse fill="lightgrey" stroke="black" stroke-width="2.5" cx="803" cy="-391.71" rx="36" ry="36"/>
<text text-anchor="middle" x="803" y="-386.66" font-family="Courier New" font-size="14.00">ctl</text>
</g>
<!-- n8 -->
<g id="node5" class="node">
<title>n8</title>
<polygon fill="#9dddea" stroke="#9dddea" stroke-width="2.5" points="967.75,-319.71 638.25,-319.71 638.25,-247.71 967.75,-247.71 967.75,-319.71"/>
<text text-anchor="middle" x="803" y="-278.66" font-family="Courier New" font-size="14.00">Outside temperature in Celsius degrees</text>
</g>
<!-- n9&#45;&gt;n8 -->
<g id="edge1" class="edge">
<title>n9&#45;&gt;n8</title>
<path fill="none" stroke="black" d="M803,-354.85C803,-354.85 803,-331.93 803,-331.93"/>
<polygon fill="black" stroke="black" points="806.5,-331.93 803,-321.93 799.5,-331.93 806.5,-331.93"/>
</g>
<!-- n10 -->
<g id="node4" class="node">
<title>n10</title>
<ellipse fill="lightgrey" stroke="black" stroke-width="2.5" cx="803" cy="-119.86" rx="91.86" ry="91.86"/>
<text text-anchor="middle" x="803" y="-114.81" font-family="Courier New" font-size="14.00">current_temperature</text>
</g>
<!-- n8&#45;&gt;n10 -->
<g id="edge2" class="edge">
<title>n8&#45;&gt;n10</title>
<path fill="none" stroke="black" d="M803,-246.94C803,-246.94 803,-224.18 803,-224.18"/>
<polygon fill="black" stroke="black" points="806.5,-224.18 803,-214.18 799.5,-224.18 806.5,-224.18"/>
</g>
<!-- n5 -->
<g id="node6" class="node">
<title>n5</title>
<ellipse fill="lightgrey" stroke="black" stroke-width="2.5" cx="1052" cy="-391.71" rx="36" ry="36"/>
<text text-anchor="middle" x="1052" y="-386.66" font-family="Courier New" font-size="14.00">ctl</text>
</g>
<!-- n4 -->
<g id="node8" class="node">
<title>n4</title>
<polygon fill="#9dddea" stroke="#9dddea" stroke-width="2.5" points="1088,-319.71 1016,-319.71 1016,-247.71 1088,-247.71 1088,-319.71"/>
<text text-anchor="middle" x="1052" y="-278.66" font-family="Courier New" font-size="14.00">Time</text>
</g>
<!-- n5&#45;&gt;n4 -->
<g id="edge3" class="edge">
<title>n5&#45;&gt;n4</title>
<path fill="none" stroke="black" d="M1052,-354.85C1052,-354.85 1052,-331.93 1052,-331.93"/>
<polygon fill="black" stroke="black" points="1055.5,-331.93 1052,-321.93 1048.5,-331.93 1055.5,-331.93"/>
</g>
<!-- n6 -->
<g id="node7" class="node">
<title>n6</title>
<ellipse fill="lightgrey" stroke="black" stroke-width="2.5" cx="1052" cy="-119.86" rx="36" ry="36"/>
<text text-anchor="middle" x="1052" y="-114.81" font-family="Courier New" font-size="14.00">tick</text>
</g>
<!-- n4&#45;&gt;n6 -->
<g id="edge4" class="edge">
<title>n4&#45;&gt;n6</title>
<path fill="none" stroke="black" d="M1052,-246.94C1052,-246.94 1052,-168.3 1052,-168.3"/>
<polygon fill="black" stroke="black" points="1055.5,-168.3 1052,-158.3 1048.5,-168.3 1055.5,-168.3"/>
</g>
</g>
</svg>
