<?xml version="1.0" encoding="UTF-8" standalone="no"?>
<!DOCTYPE svg PUBLIC "-//W3C//DTD SVG 1.1//EN"
 "http://www.w3.org/Graphics/SVG/1.1/DTD/svg11.dtd">
<!-- Generated by graphviz version 15.1.0 (20260618.0150)
 -->
<!-- Pages: 1 -->
<svg width="1659pt" height="2004pt"
 viewBox="0.00 0.00 1659.00 2004.00" xmlns="http://www.w3.org/2000/svg" xmlns:xlink="http://www.w3.org/1999/xlink">
<g id="graph0" class="graph" transform="scale(1 1) rotate(0) translate(4 1999.93)">
<polygon fill="white" stroke="none" points="-4,4 -4,-1999.93 1655,-1999.93 1655,4 -4,4"/>
<g id="clust1" class="cluster">
<title>cluster_s1</title>
<polygon fill="#e2c6fc" stroke="black" stroke-dasharray="5,2" points="8,-1875.18 8,-1939.68 1110,-1939.68 1110,-1875.18 8,-1875.18"/>
</g>
<g id="clust2" class="cluster">
<title>cluster_s29</title>
<path fill="none" stroke="black" stroke-width="5" d="M1198,-428.93C1198,-428.93 1376,-428.93 1376,-428.93 1382,-428.93 1388,-434.93 1388,-440.93 1388,-440.93 1388,-661.43 1388,-661.43 1388,-667.43 1382,-673.43 1376,-673.43 1376,-673.43 1198,-673.43 1198,-673.43 1192,-673.43 1186,-667.43 1186,-661.43 1186,-661.43 1186,-440.93 1186,-440.93 1186,-434.93 1192,-428.93 1198,-428.93"/>
<text xml:space="preserve" text-anchor="middle" x="1287" y="-656.13" font-family="Times,serif" font-size="14.00">cancelled</text>
</g>
<g id="clust3" class="cluster">
<title>cluster_s7</title>
<path fill="none" stroke="black" stroke-width="5" d="M1134,-1527.43C1134,-1527.43 1367,-1527.43 1367,-1527.43 1373,-1527.43 1379,-1533.43 1379,-1539.43 1379,-1539.43 1379,-1975.93 1379,-1975.93 1379,-1981.93 1373,-1987.93 1367,-1987.93 1367,-1987.93 1134,-1987.93 1134,-1987.93 1128,-1987.93 1122,-1981.93 1122,-1975.93 1122,-1975.93 1122,-1539.43 1122,-1539.43 1122,-1533.43 1128,-1527.43 1134,-1527.43"/>
<text xml:space="preserve" text-anchor="middle" x="1250.5" y="-1970.63" font-family="Times,serif" font-size="14.00">created</text>
</g>
<g id="clust4" class="cluster">
<title>cluster_s25</title>
<path fill="none" stroke="black" stroke-width="5" d="M1453,-8C1453,-8 1631,-8 1631,-8 1637,-8 1643,-14 1643,-20 1643,-20 1643,-240.5 1643,-240.5 1643,-246.5 1637,-252.5 1631,-252.5 1631,-252.5 1453,-252.5 1453,-252.5 1447,-252.5 1441,-246.5 1441,-240.5 1441,-240.5 1441,-20 1441,-20 1441,-14 1447,-8 1453,-8"/>
<text xml:space="preserve" text-anchor="middle" x="1542" y="-235.2" font-family="Times,serif" font-size="14.00">delivered</text>
</g>
<g id="clust5" class="cluster">
<title>cluster_s14</title>
<path fill="none" stroke="black" stroke-width="5" d="M1284,-735.43C1284,-735.43 1462,-735.43 1462,-735.43 1468,-735.43 1474,-741.43 1474,-747.43 1474,-747.43 1474,-1075.93 1474,-1075.93 1474,-1081.93 1468,-1087.93 1462,-1087.93 1462,-1087.93 1284,-1087.93 1284,-1087.93 1278,-1087.93 1272,-1081.93 1272,-1075.93 1272,-1075.93 1272,-747.43 1272,-747.43 1272,-741.43 1278,-735.43 1284,-735.43"/>
<text xml:space="preserve" text-anchor="middle" x="1373" y="-1070.63" font-family="Times,serif" font-size="14.00">paid</text>
</g>
<g id="clust6" class="cluster">
<title>cluster_s3</title>
<path fill="none" stroke="black" stroke-width="5" d="M1284,-1149.93C1284,-1149.93 1372,-1149.93 1372,-1149.93 1378,-1149.93 1384,-1155.93 1384,-1161.93 1384,-1161.93 1384,-1490.43 1384,-1490.43 1384,-1496.43 1378,-1502.43 1372,-1502.43 1372,-1502.43 1284,-1502.43 1284,-1502.43 1278,-1502.43 1272,-1496.43 1272,-1490.43 1272,-1490.43 1272,-1161.93 1272,-1161.93 1272,-1155.93 1278,-1149.93 1284,-1149.93"/>
<text xml:space="preserve" text-anchor="middle" x="1328" y="-1485.13" font-family="Times,serif" font-size="14.00">pay?</text>
</g>
<g id="clust7" class="cluster">
<title>cluster_s20</title>
<path fill="none" stroke="black" stroke-width="5" d="M1408,-314.5C1408,-314.5 1586,-314.5 1586,-314.5 1592,-314.5 1598,-320.5 1598,-326.5 1598,-326.5 1598,-661.43 1598,-661.43 1598,-667.43 1592,-673.43 1586,-673.43 1586,-673.43 1408,-673.43 1408,-673.43 1402,-673.43 1396,-667.43 1396,-661.43 1396,-661.43 1396,-326.5 1396,-326.5 1396,-320.5 1402,-314.5 1408,-314.5"/>
<text xml:space="preserve" text-anchor="middle" x="1497" y="-656.13" font-family="Times,serif" font-size="14.00">shipped</text>
</g>
<!-- n2 -->
<g id="node1" class="node">
<title>n2</title>
<text xml:space="preserve" text-anchor="start" x="36.38" y="-1903.68" font-family="Courier New" font-size="14.00">Description:</text>
<text xml:space="preserve" text-anchor="start" x="149.38" y="-1903.68" font-family="Courier New" font-size="14.00">a state machine: states are components, transitions are pipes leaving event&#45;named ports, a guard sits on its pipe</text>
</g>
<!-- n31 -->
<g id="node2" class="node">
<title>n31</title>
<ellipse fill="lightgrey" stroke="black" stroke-width="2.5" cx="1242" cy="-592.93" rx="36" ry="36"/>
<text xml:space="preserve" text-anchor="middle" x="1242" y="-587.88" font-family="Courier New" font-size="14.00">enter</text>
</g>
<!-- n30 -->
<g id="node4" class="node">
<title>n30</title>
<polygon fill="#9dddea" stroke="#9dddea" stroke-width="2.5" points="1356.88,-520.93 1217.12,-520.93 1217.12,-448.93 1356.88,-448.93 1356.88,-520.93"/>
<text xml:space="preserve" text-anchor="middle" x="1287" y="-479.88" font-family="Courier New" font-size="14.00">state cancelled</text>
</g>
<!-- n31&#45;&gt;n30 -->
<g id="edge1" class="edge">
<title>n31&#45;&gt;n30</title>
<path fill="none" stroke="black" d="M1247.56,-556.37C1247.56,-556.37 1247.56,-533.34 1247.56,-533.34"/>
<polygon fill="black" stroke="black" points="1251.06,-533.34 1247.56,-523.34 1244.06,-533.34 1251.06,-533.34"/>
</g>
<!-- n32 -->
<g id="node3" class="node">
<title>n32</title>
<ellipse fill="lightgrey" stroke="black" stroke-width="2.5" cx="1332" cy="-592.93" rx="36" ry="36"/>
<text xml:space="preserve" text-anchor="middle" x="1332" y="-587.88" font-family="Courier New" font-size="14.00">event</text>
</g>
<!-- n32&#45;&gt;n30 -->
<g id="edge2" class="edge">
<title>n32&#45;&gt;n30</title>
<path fill="none" stroke="black" d="M1326.44,-556.37C1326.44,-556.37 1326.44,-533.34 1326.44,-533.34"/>
<polygon fill="black" stroke="black" points="1329.94,-533.34 1326.44,-523.34 1322.94,-533.34 1329.94,-533.34"/>
</g>
<!-- n9 -->
<g id="node5" class="node">
<title>n9</title>
<ellipse fill="lightgrey" stroke="black" stroke-width="2.5" cx="1178" cy="-1907.43" rx="36" ry="36"/>
<text xml:space="preserve" text-anchor="middle" x="1178" y="-1902.38" font-family="Courier New" font-size="14.00">enter</text>
</g>
<!-- n8 -->
<g id="node10" class="node">
<title>n8</title>
<polygon fill="#9dddea" stroke="#9dddea" stroke-width="2.5" points="1300.62,-1835.43 1177.38,-1835.43 1177.38,-1763.43 1300.62,-1763.43 1300.62,-1835.43"/>
<text xml:space="preserve" text-anchor="middle" x="1239" y="-1794.38" font-family="Courier New" font-size="14.00">state created</text>
</g>
<!-- n9&#45;&gt;n8 -->
<g id="edge3" class="edge">
<title>n9&#45;&gt;n8</title>
<path fill="none" stroke="black" d="M1195.69,-1874.73C1195.69,-1874.73 1195.69,-1848.07 1195.69,-1848.07"/>
<polygon fill="black" stroke="black" points="1199.19,-1848.07 1195.69,-1838.07 1192.19,-1848.07 1199.19,-1848.07"/>
</g>
<!-- n10 -->
<g id="node6" class="node">
<title>n10</title>
<ellipse fill="lightgrey" stroke="black" stroke-width="2.5" cx="1268" cy="-1907.43" rx="36" ry="36"/>
<text xml:space="preserve" text-anchor="middle" x="1268" y="-1902.38" font-family="Courier New" font-size="14.00">event</text>
</g>
<!-- n10&#45;&gt;n8 -->
<g id="edge4" class="edge">
<title>n10&#45;&gt;n8</title>
<path fill="none" stroke="black" d="M1266.31,-1870.26C1266.31,-1870.26 1266.31,-1848.18 1266.31,-1848.18"/>
<polygon fill="black" stroke="black" points="1269.81,-1848.18 1266.31,-1838.18 1262.81,-1848.18 1269.81,-1848.18"/>
</g>
<!-- n13 -->
<g id="node7" class="node">
<title>n13</title>
<ellipse fill="lightgrey" stroke="black" stroke-width="2.5" cx="1233" cy="-1691.43" rx="36" ry="36"/>
<text xml:space="preserve" text-anchor="middle" x="1233" y="-1686.38" font-family="Courier New" font-size="14.00">cancel</text>
</g>
<!-- n13&#45;&gt;n31 -->
<g id="edge19" class="edge">
<title>n13&#45;&gt;n31</title>
<path fill="none" stroke="#e437ea" stroke-width="2" d="M1241.5,-1655.19C1241.5,-1655.19 1241.5,-642.96 1241.5,-642.96"/>
<polygon fill="#e437ea" stroke="#e437ea" stroke-width="2" points="1245,-642.96 1241.5,-632.96 1238,-642.96 1245,-642.96"/>
</g>
<!-- n12 -->
<g id="node8" class="node">
<title>n12</title>
<ellipse fill="lightgrey" stroke="black" stroke-width="2.5" cx="1323" cy="-1691.43" rx="36" ry="36"/>
<text xml:space="preserve" text-anchor="middle" x="1323" y="-1686.38" font-family="Courier New" font-size="14.00">pay</text>
</g>
<!-- n5 -->
<g id="node19" class="node">
<title>n5</title>
<ellipse fill="lightgrey" stroke="black" stroke-width="2.5" cx="1328" cy="-1421.93" rx="36" ry="36"/>
<text xml:space="preserve" text-anchor="middle" x="1328" y="-1416.88" font-family="Courier New" font-size="14.00">in</text>
</g>
<!-- n12&#45;&gt;n5 -->
<g id="edge20" class="edge">
<title>n12&#45;&gt;n5</title>
<path fill="none" stroke="#e437ea" stroke-width="2" d="M1325.5,-1654.52C1325.5,-1654.52 1325.5,-1471.85 1325.5,-1471.85"/>
<polygon fill="#e437ea" stroke="#e437ea" stroke-width="2" points="1329,-1471.85 1325.5,-1461.85 1322,-1471.85 1329,-1471.85"/>
</g>
<!-- n11 -->
<g id="node9" class="node">
<title>n11</title>
<ellipse fill="lightgrey" stroke="black" stroke-width="2.5" cx="1178" cy="-1583.43" rx="36" ry="36"/>
<text xml:space="preserve" text-anchor="middle" x="1178" y="-1578.38" font-family="Courier New" font-size="14.00">update</text>
</g>
<!-- n11&#45;&gt;n9 -->
<g id="edge21" class="edge">
<title>n11&#45;&gt;n9</title>
<path fill="none" stroke="#e437ea" stroke-width="2" d="M1159.69,-1615.68C1159.69,-1615.68 1159.69,-1862.28 1159.69,-1862.28"/>
<polygon fill="#e437ea" stroke="#e437ea" stroke-width="2" points="1156.19,-1862.28 1159.69,-1872.28 1163.19,-1862.28 1156.19,-1862.28"/>
</g>
<!-- n8&#45;&gt;n13 -->
<g id="edge7" class="edge">
<title>n8&#45;&gt;n13</title>
<path fill="none" stroke="black" d="M1233,-1762.26C1233,-1762.26 1233,-1740.18 1233,-1740.18"/>
<polygon fill="black" stroke="black" points="1236.5,-1740.18 1233,-1730.18 1229.5,-1740.18 1236.5,-1740.18"/>
</g>
<!-- n8&#45;&gt;n12 -->
<g id="edge6" class="edge">
<title>n8&#45;&gt;n12</title>
<path fill="none" stroke="black" d="M1293.81,-1762.26C1293.81,-1762.26 1293.81,-1726 1293.81,-1726"/>
<polygon fill="black" stroke="black" points="1297.31,-1726 1293.81,-1716 1290.31,-1726 1297.31,-1726"/>
</g>
<!-- n8&#45;&gt;n11 -->
<g id="edge5" class="edge">
<title>n8&#45;&gt;n11</title>
<path fill="none" stroke="black" d="M1187.19,-1762.3C1187.19,-1762.3 1187.19,-1630.87 1187.19,-1630.87"/>
<polygon fill="black" stroke="black" points="1190.69,-1630.87 1187.19,-1620.87 1183.69,-1630.87 1190.69,-1630.87"/>
</g>
<!-- n27 -->
<g id="node11" class="node">
<title>n27</title>
<ellipse fill="lightgrey" stroke="black" stroke-width="2.5" cx="1497" cy="-172" rx="36" ry="36"/>
<text xml:space="preserve" text-anchor="middle" x="1497" y="-166.95" font-family="Courier New" font-size="14.00">enter</text>
</g>
<!-- n26 -->
<g id="node13" class="node">
<title>n26</title>
<polygon fill="#9dddea" stroke="#9dddea" stroke-width="2.5" points="1611.88,-100 1472.12,-100 1472.12,-28 1611.88,-28 1611.88,-100"/>
<text xml:space="preserve" text-anchor="middle" x="1542" y="-58.95" font-family="Courier New" font-size="14.00">state delivered</text>
</g>
<!-- n27&#45;&gt;n26 -->
<g id="edge8" class="edge">
<title>n27&#45;&gt;n26</title>
<path fill="none" stroke="black" d="M1502.56,-135.44C1502.56,-135.44 1502.56,-112.41 1502.56,-112.41"/>
<polygon fill="black" stroke="black" points="1506.06,-112.41 1502.56,-102.41 1499.06,-112.41 1506.06,-112.41"/>
</g>
<!-- n28 -->
<g id="node12" class="node">
<title>n28</title>
<ellipse fill="lightgrey" stroke="black" stroke-width="2.5" cx="1587" cy="-172" rx="36" ry="36"/>
<text xml:space="preserve" text-anchor="middle" x="1587" y="-166.95" font-family="Courier New" font-size="14.00">event</text>
</g>
<!-- n28&#45;&gt;n26 -->
<g id="edge9" class="edge">
<title>n28&#45;&gt;n26</title>
<path fill="none" stroke="black" d="M1581.44,-135.44C1581.44,-135.44 1581.44,-112.41 1581.44,-112.41"/>
<polygon fill="black" stroke="black" points="1584.94,-112.41 1581.44,-102.41 1577.94,-112.41 1584.94,-112.41"/>
</g>
<!-- n16 -->
<g id="node14" class="node">
<title>n16</title>
<ellipse fill="lightgrey" stroke="black" stroke-width="2.5" cx="1328" cy="-1007.43" rx="36" ry="36"/>
<text xml:space="preserve" text-anchor="middle" x="1328" y="-1002.38" font-family="Courier New" font-size="14.00">enter</text>
</g>
<!-- n15 -->
<g id="node18" class="node">
<title>n15</title>
<polygon fill="#9dddea" stroke="#9dddea" stroke-width="2.5" points="1422.25,-935.43 1323.75,-935.43 1323.75,-863.43 1422.25,-863.43 1422.25,-935.43"/>
<text xml:space="preserve" text-anchor="middle" x="1373" y="-894.38" font-family="Courier New" font-size="14.00">state paid</text>
</g>
<!-- n16&#45;&gt;n15 -->
<g id="edge10" class="edge">
<title>n16&#45;&gt;n15</title>
<path fill="none" stroke="black" d="M1343.88,-973.85C1343.88,-973.85 1343.88,-947.88 1343.88,-947.88"/>
<polygon fill="black" stroke="black" points="1347.38,-947.88 1343.88,-937.88 1340.38,-947.88 1347.38,-947.88"/>
</g>
<!-- n17 -->
<g id="node15" class="node">
<title>n17</title>
<ellipse fill="lightgrey" stroke="black" stroke-width="2.5" cx="1418" cy="-1007.43" rx="36" ry="36"/>
<text xml:space="preserve" text-anchor="middle" x="1418" y="-1002.38" font-family="Courier New" font-size="14.00">event</text>
</g>
<!-- n17&#45;&gt;n15 -->
<g id="edge11" class="edge">
<title>n17&#45;&gt;n15</title>
<path fill="none" stroke="black" d="M1402.12,-973.85C1402.12,-973.85 1402.12,-947.88 1402.12,-947.88"/>
<polygon fill="black" stroke="black" points="1405.63,-947.88 1402.13,-937.88 1398.63,-947.88 1405.63,-947.88"/>
</g>
<!-- n19 -->
<g id="node16" class="node">
<title>n19</title>
<ellipse fill="lightgrey" stroke="black" stroke-width="2.5" cx="1328" cy="-791.43" rx="36" ry="36"/>
<text xml:space="preserve" text-anchor="middle" x="1328" y="-786.38" font-family="Courier New" font-size="14.00">cancel</text>
</g>
<!-- n19&#45;&gt;n31 -->
<g id="edge22" class="edge">
<title>n19&#45;&gt;n31</title>
<path fill="none" stroke="#e437ea" stroke-width="2" d="M1291.04,-791C1281.32,-791 1273.5,-791 1273.5,-791 1273.5,-791 1273.5,-625.67 1273.5,-625.67"/>
<polygon fill="#e437ea" stroke="#e437ea" stroke-width="2" points="1277,-625.67 1273.5,-615.67 1270,-625.67 1277,-625.67"/>
</g>
<!-- n18 -->
<g id="node17" class="node">
<title>n18</title>
<ellipse fill="lightgrey" stroke="black" stroke-width="2.5" cx="1418" cy="-791.43" rx="36" ry="36"/>
<text xml:space="preserve" text-anchor="middle" x="1418" y="-786.38" font-family="Courier New" font-size="14.00">ship</text>
</g>
<!-- n22 -->
<g id="node22" class="node">
<title>n22</title>
<ellipse fill="lightgrey" stroke="black" stroke-width="2.5" cx="1452" cy="-592.93" rx="36" ry="36"/>
<text xml:space="preserve" text-anchor="middle" x="1452" y="-587.88" font-family="Courier New" font-size="14.00">enter</text>
</g>
<!-- n18&#45;&gt;n22 -->
<g id="edge23" class="edge">
<title>n18&#45;&gt;n22</title>
<path fill="none" stroke="#e437ea" stroke-width="2" d="M1435,-758.65C1435,-758.65 1435,-638.78 1435,-638.78"/>
<polygon fill="#e437ea" stroke="#e437ea" stroke-width="2" points="1438.5,-638.78 1435,-628.78 1431.5,-638.78 1438.5,-638.78"/>
</g>
<!-- n15&#45;&gt;n19 -->
<g id="edge13" class="edge">
<title>n15&#45;&gt;n19</title>
<path fill="none" stroke="black" d="M1343.88,-862.26C1343.88,-862.26 1343.88,-836.56 1343.88,-836.56"/>
<polygon fill="black" stroke="black" points="1347.38,-836.56 1343.88,-826.56 1340.38,-836.56 1347.38,-836.56"/>
</g>
<!-- n15&#45;&gt;n18 -->
<g id="edge12" class="edge">
<title>n15&#45;&gt;n18</title>
<path fill="none" stroke="black" d="M1402.12,-862.26C1402.12,-862.26 1402.12,-836.56 1402.12,-836.56"/>
<polygon fill="black" stroke="black" points="1405.63,-836.56 1402.13,-826.56 1398.63,-836.56 1405.63,-836.56"/>
</g>
<!-- n4 -->
<g id="node21" class="node">
<title>n4</title>
<polygon fill="#9dddea" stroke="#9dddea" stroke-width="2.5" points="1364,-1349.93 1292,-1349.93 1292,-1277.93 1364,-1277.93 1364,-1349.93"/>
<text xml:space="preserve" text-anchor="middle" x="1328" y="-1308.88" font-family="Courier New" font-size="14.00">guard</text>
</g>
<!-- n5&#45;&gt;n4 -->
<g id="edge14" class="edge">
<title>n5&#45;&gt;n4</title>
<path fill="none" stroke="black" d="M1328,-1384.76C1328,-1384.76 1328,-1362.68 1328,-1362.68"/>
<polygon fill="black" stroke="black" points="1331.5,-1362.68 1328,-1352.68 1324.5,-1362.68 1331.5,-1362.68"/>
</g>
<!-- n6 -->
<g id="node20" class="node">
<title>n6</title>
<ellipse fill="lightgrey" stroke="black" stroke-width="2.5" cx="1328" cy="-1205.93" rx="36" ry="36"/>
<text xml:space="preserve" text-anchor="middle" x="1328" y="-1200.88" font-family="Courier New" font-size="14.00">out</text>
</g>
<!-- n6&#45;&gt;n16 -->
<g id="edge24" class="edge">
<title>n6&#45;&gt;n16</title>
<path fill="none" stroke="#e437ea" stroke-width="2" d="M1328,-1169.06C1328,-1169.06 1328,-1057.47 1328,-1057.47"/>
<polygon fill="#e437ea" stroke="#e437ea" stroke-width="2" points="1331.5,-1057.47 1328,-1047.47 1324.5,-1057.47 1331.5,-1057.47"/>
</g>
<!-- n4&#45;&gt;n6 -->
<g id="edge15" class="edge">
<title>n4&#45;&gt;n6</title>
<path fill="none" stroke="black" d="M1328,-1276.76C1328,-1276.76 1328,-1254.68 1328,-1254.68"/>
<polygon fill="black" stroke="black" points="1331.5,-1254.68 1328,-1244.68 1324.5,-1254.68 1331.5,-1254.68"/>
</g>
<!-- n21 -->
<g id="node25" class="node">
<title>n21</title>
<polygon fill="#9dddea" stroke="#9dddea" stroke-width="2.5" points="1558.62,-520.93 1435.38,-520.93 1435.38,-448.93 1558.62,-448.93 1558.62,-520.93"/>
<text xml:space="preserve" text-anchor="middle" x="1497" y="-479.88" font-family="Courier New" font-size="14.00">state shipped</text>
</g>
<!-- n22&#45;&gt;n21 -->
<g id="edge16" class="edge">
<title>n22&#45;&gt;n21</title>
<path fill="none" stroke="black" d="M1461.69,-556.97C1461.69,-556.97 1461.69,-533.36 1461.69,-533.36"/>
<polygon fill="black" stroke="black" points="1465.19,-533.36 1461.69,-523.36 1458.19,-533.36 1465.19,-533.36"/>
</g>
<!-- n23 -->
<g id="node23" class="node">
<title>n23</title>
<ellipse fill="lightgrey" stroke="black" stroke-width="2.5" cx="1542" cy="-592.93" rx="36" ry="36"/>
<text xml:space="preserve" text-anchor="middle" x="1542" y="-587.88" font-family="Courier New" font-size="14.00">event</text>
</g>
<!-- n23&#45;&gt;n21 -->
<g id="edge17" class="edge">
<title>n23&#45;&gt;n21</title>
<path fill="none" stroke="black" d="M1532.31,-556.97C1532.31,-556.97 1532.31,-533.36 1532.31,-533.36"/>
<polygon fill="black" stroke="black" points="1535.81,-533.36 1532.31,-523.36 1528.81,-533.36 1535.81,-533.36"/>
</g>
<!-- n24 -->
<g id="node24" class="node">
<title>n24</title>
<ellipse fill="lightgrey" stroke="black" stroke-width="2.5" cx="1497" cy="-373.72" rx="39.22" ry="39.22"/>
<text xml:space="preserve" text-anchor="middle" x="1497" y="-368.67" font-family="Courier New" font-size="14.00">deliver</text>
</g>
<!-- n24&#45;&gt;n27 -->
<g id="edge25" class="edge">
<title>n24&#45;&gt;n27</title>
<path fill="none" stroke="#e437ea" stroke-width="2" d="M1497,-333.38C1497,-333.38 1497,-222.23 1497,-222.23"/>
<polygon fill="#e437ea" stroke="#e437ea" stroke-width="2" points="1500.5,-222.23 1497,-212.23 1493.5,-222.23 1500.5,-222.23"/>
</g>
<!-- n21&#45;&gt;n24 -->
<g id="edge18" class="edge">
<title>n21&#45;&gt;n24</title>
<path fill="none" stroke="black" d="M1497,-447.9C1497,-447.9 1497,-425.54 1497,-425.54"/>
<polygon fill="black" stroke="black" points="1500.5,-425.54 1497,-415.54 1493.5,-425.54 1500.5,-425.54"/>
</g>
</g>
</svg>
