<?xml version="1.0" encoding="UTF-8" standalone="no"?>
<!DOCTYPE svg PUBLIC "-//W3C//DTD SVG 1.1//EN"
 "http://www.w3.org/Graphics/SVG/1.1/DTD/svg11.dtd">
<!-- Generated by graphviz version 12.2.1 (20241206.2353)
 -->
<!-- Pages: 1 -->
<svg width="626pt" height="683pt"
 viewBox="0.00 0.00 626.00 683.00" xmlns="http://www.w3.org/2000/svg" xmlns:xlink="http://www.w3.org/1999/xlink">
<g id="graph0" class="graph" transform="scale(1 1) rotate(0) translate(4 679)">
<polygon fill="white" stroke="none" points="-4,4 -4,-679 622,-679 622,4 -4,4"/>
<g id="clust1" class="cluster">
<title>cluster_s1</title>
<polygon fill="#e2c6fc" stroke="black" stroke-dasharray="5,2" points="8,-554.25 8,-618.75 376,-618.75 376,-554.25 8,-554.25"/>
</g>
<g id="clust2" class="cluster">
<title>cluster_s3</title>
<path fill="none" stroke="black" stroke-width="5" d="M400,-314.5C400,-314.5 598,-314.5 598,-314.5 604,-314.5 610,-320.5 610,-326.5 610,-326.5 610,-655 610,-655 610,-661 604,-667 598,-667 598,-667 400,-667 400,-667 394,-667 388,-661 388,-655 388,-655 388,-326.5 388,-326.5 388,-320.5 394,-314.5 400,-314.5"/>
<text text-anchor="middle" x="499" y="-649.7" font-family="Times,serif" font-size="14.00">bypass</text>
</g>
<g id="clust3" class="cluster">
<title>cluster_s7</title>
<path fill="none" stroke="black" stroke-width="5" d="M429,-8C429,-8 569,-8 569,-8 575,-8 581,-14 581,-20 581,-20 581,-240.5 581,-240.5 581,-246.5 575,-252.5 569,-252.5 569,-252.5 429,-252.5 429,-252.5 423,-252.5 417,-246.5 417,-240.5 417,-240.5 417,-20 417,-20 417,-14 423,-8 429,-8"/>
<text text-anchor="middle" x="499" y="-235.2" font-family="Times,serif" font-size="14.00">logger</text>
</g>
<!-- n2 -->
<g id="node1" class="node">
<title>n2</title>
<text text-anchor="start" x="36.5" y="-581.45" font-family="Courier New" font-size="14.00">Description:</text>
<text text-anchor="start" x="149.5" y="-581.45" font-family="Courier New" font-size="14.00">A mesh with 2 components</text>
</g>
<!-- n5 -->
<g id="node2" class="node">
<title>n5</title>
<ellipse fill="lightgrey" stroke="black" stroke-width="2.5" cx="499" cy="-586.5" rx="36" ry="36"/>
<text text-anchor="middle" x="499" y="-581.45" font-family="Courier New" font-size="14.00">in</text>
</g>
<!-- n4 -->
<g id="node4" class="node">
<title>n4</title>
<polygon fill="#9dddea" stroke="#9dddea" stroke-width="2.5" points="589.5,-514.5 408.5,-514.5 408.5,-442.5 589.5,-442.5 589.5,-514.5"/>
<text text-anchor="middle" x="499" y="-473.45" font-family="Courier New" font-size="14.00">Bypasses all signals</text>
</g>
<!-- n5&#45;&gt;n4 -->
<g id="edge1" class="edge">
<title>n5&#45;&gt;n4</title>
<path fill="none" stroke="black" d="M499,-549.63C499,-549.63 499,-526.71 499,-526.71"/>
<polygon fill="black" stroke="black" points="502.5,-526.71 499,-516.71 495.5,-526.71 502.5,-526.71"/>
</g>
<!-- n6 -->
<g id="node3" class="node">
<title>n6</title>
<ellipse fill="lightgrey" stroke="black" stroke-width="2.5" cx="499" cy="-370.5" rx="36" ry="36"/>
<text text-anchor="middle" x="499" y="-365.45" font-family="Courier New" font-size="14.00">out</text>
</g>
<!-- n9 -->
<g id="node5" class="node">
<title>n9</title>
<ellipse fill="lightgrey" stroke="black" stroke-width="2.5" cx="499" cy="-172" rx="36" ry="36"/>
<text text-anchor="middle" x="499" y="-166.95" font-family="Courier New" font-size="14.00">line</text>
</g>
<!-- n6&#45;&gt;n9 -->
<g id="edge4" class="edge">
<title>n6&#45;&gt;n9</title>
<path fill="none" stroke="#e437ea" stroke-width="2" d="M499,-333.63C499,-333.63 499,-221.7 499,-221.7"/>
<polygon fill="#e437ea" stroke="#e437ea" stroke-width="2" points="502.5,-221.7 499,-211.7 495.5,-221.7 502.5,-221.7"/>
</g>
<!-- n4&#45;&gt;n6 -->
<g id="edge2" class="edge">
<title>n4&#45;&gt;n6</title>
<path fill="none" stroke="black" d="M499,-441.63C499,-441.63 499,-418.71 499,-418.71"/>
<polygon fill="black" stroke="black" points="502.5,-418.71 499,-408.71 495.5,-418.71 502.5,-418.71"/>
</g>
<!-- n8 -->
<g id="node6" class="node">
<title>n8</title>
<polygon fill="#9dddea" stroke="#9dddea" stroke-width="2.5" points="560.62,-100 437.38,-100 437.38,-28 560.62,-28 560.62,-100"/>
<text text-anchor="middle" x="499" y="-58.95" font-family="Courier New" font-size="14.00">Simple logger</text>
</g>
<!-- n9&#45;&gt;n8 -->
<g id="edge3" class="edge">
<title>n9&#45;&gt;n8</title>
<path fill="none" stroke="black" d="M499,-135.13C499,-135.13 499,-112.21 499,-112.21"/>
<polygon fill="black" stroke="black" points="502.5,-112.21 499,-102.21 495.5,-112.21 502.5,-112.21"/>
</g>
</g>
</svg>
