<?xml version="1.0" encoding="UTF-8" standalone="no"?>
<!DOCTYPE svg PUBLIC "-//W3C//DTD SVG 1.1//EN"
 "http://www.w3.org/Graphics/SVG/1.1/DTD/svg11.dtd">
<!-- Generated by graphviz version 12.2.1 (20241206.2353)
 -->
<!-- Pages: 1 -->
<svg width="626pt" height="630pt"
 viewBox="0.00 0.00 626.00 629.50" xmlns="http://www.w3.org/2000/svg" xmlns:xlink="http://www.w3.org/1999/xlink">
<g id="graph0" class="graph" transform="scale(1 1) rotate(0) translate(4 625.5)">
<polygon fill="white" stroke="none" points="-4,4 -4,-625.5 622,-625.5 622,4 -4,4"/>
<g id="clust1" class="cluster">
<title>cluster_s1</title>
<polygon fill="#e2c6fc" stroke="black" stroke-dasharray="5,2" points="8,-500.75 8,-565.25 376,-565.25 376,-500.75 8,-500.75"/>
</g>
<g id="clust2" class="cluster">
<title>cluster_s3</title>
<path fill="none" stroke="black" stroke-width="5" d="M400,-8C400,-8 598,-8 598,-8 604,-8 610,-14 610,-20 610,-20 610,-601.5 610,-601.5 610,-607.5 604,-613.5 598,-613.5 598,-613.5 400,-613.5 400,-613.5 394,-613.5 388,-607.5 388,-601.5 388,-601.5 388,-20 388,-20 388,-14 394,-8 400,-8"/>
<text text-anchor="middle" x="499" y="-596.2" font-family="Times,serif" font-size="14.00">fibonacci number generator</text>
</g>
<!-- n2 -->
<g id="node1" class="node">
<title>n2</title>
<text text-anchor="start" x="36.5" y="-527.95" font-family="Courier New" font-size="14.00">Description:</text>
<text text-anchor="start" x="149.5" y="-527.95" font-family="Courier New" font-size="14.00">A mesh with 1 components</text>
</g>
<!-- n5 -->
<g id="node2" class="node">
<title>n5</title>
<ellipse fill="lightgrey" stroke="black" stroke-width="2.5" cx="471" cy="-533" rx="36" ry="36"/>
<text text-anchor="middle" x="471" y="-527.95" font-family="Courier New" font-size="14.00">i_cur</text>
</g>
<!-- n4 -->
<g id="node6" class="node">
<title>n4</title>
<polygon fill="#9dddea" stroke="#9dddea" stroke-width="2.5" points="535,-461 463,-461 463,-389 535,-389 535,-461"/>
<text text-anchor="middle" x="499" y="-419.2" font-family="Courier New" font-size="14.00">ğ‘“</text>
</g>
<!-- n5&#45;&gt;n4 -->
<g id="edge1" class="edge">
<title>n5&#45;&gt;n4</title>
<path fill="none" stroke="black" d="M485,-498.83C485,-498.83 485,-473.45 485,-473.45"/>
<polygon fill="black" stroke="black" points="488.5,-473.45 485,-463.45 481.5,-473.45 488.5,-473.45"/>
</g>
<!-- n6 -->
<g id="node3" class="node">
<title>n6</title>
<ellipse fill="lightgrey" stroke="black" stroke-width="2.5" cx="513" cy="-64" rx="36" ry="36"/>
<text text-anchor="middle" x="513" y="-58.95" font-family="Courier New" font-size="14.00">i_prev</text>
</g>
<!-- n6&#45;&gt;n4 -->
<g id="edge2" class="edge">
<title>n6&#45;&gt;n4</title>
<path fill="none" stroke="black" d="M499,-97.96C499,-97.96 499,-376.67 499,-376.67"/>
<polygon fill="black" stroke="black" points="495.5,-376.67 499,-386.67 502.5,-376.67 495.5,-376.67"/>
</g>
<!-- n7 -->
<g id="node4" class="node">
<title>n7</title>
<ellipse fill="lightgrey" stroke="black" stroke-width="2.5" cx="444" cy="-209" rx="36" ry="36"/>
<text text-anchor="middle" x="444" y="-203.95" font-family="Courier New" font-size="14.00">o_cur</text>
</g>
<!-- n7&#45;&gt;n5 -->
<g id="edge5" class="edge">
<title>n7&#45;&gt;n5</title>
<path fill="none" stroke="#e437ea" stroke-width="2" d="M449,-245.54C449,-245.54 449,-490.24 449,-490.24"/>
<polygon fill="#e437ea" stroke="#e437ea" stroke-width="2" points="445.5,-490.24 449,-500.24 452.5,-490.24 445.5,-490.24"/>
</g>
<!-- n8 -->
<g id="node5" class="node">
<title>n8</title>
<ellipse fill="lightgrey" stroke="black" stroke-width="2.5" cx="554" cy="-317" rx="36" ry="36"/>
<text text-anchor="middle" x="554" y="-311.95" font-family="Courier New" font-size="14.00">o_prev</text>
</g>
<!-- n8&#45;&gt;n6 -->
<g id="edge6" class="edge">
<title>n8&#45;&gt;n6</title>
<path fill="none" stroke="#e437ea" stroke-width="2" d="M533.5,-286.23C533.5,-286.23 533.5,-107.58 533.5,-107.58"/>
<polygon fill="#e437ea" stroke="#e437ea" stroke-width="2" points="537,-107.58 533.5,-97.58 530,-107.58 537,-107.58"/>
</g>
<!-- n4&#45;&gt;n7 -->
<g id="edge3" class="edge">
<title>n4&#45;&gt;n7</title>
<path fill="none" stroke="black" d="M471.5,-388.36C471.5,-388.36 471.5,-245.2 471.5,-245.2"/>
<polygon fill="black" stroke="black" points="475,-245.2 471.5,-235.2 468,-245.2 475,-245.2"/>
</g>
<!-- n4&#45;&gt;n8 -->
<g id="edge4" class="edge">
<title>n4&#45;&gt;n8</title>
<path fill="none" stroke="black" d="M526.5,-388.13C526.5,-388.13 526.5,-353 526.5,-353"/>
<polygon fill="black" stroke="black" points="530,-353 526.5,-343 523,-353 530,-353"/>
</g>
</g>
</svg>
