<?xml version="1.0" encoding="UTF-8" standalone="no"?>
<!DOCTYPE svg PUBLIC "-//W3C//DTD SVG 1.1//EN"
 "http://www.w3.org/Graphics/SVG/1.1/DTD/svg11.dtd">
<!-- Generated by graphviz version 12.2.1 (20241206.2353)
 -->
<!-- Pages: 1 -->
<svg width="822pt" height="1045pt"
 viewBox="0.00 0.00 822.00 1044.83" xmlns="http://www.w3.org/2000/svg" xmlns:xlink="http://www.w3.org/1999/xlink">
<g id="graph0" class="graph" transform="scale(1 1) rotate(0) translate(4 1040.83)">
<polygon fill="white" stroke="none" points="-4,4 -4,-1040.83 818,-1040.83 818,4 -4,4"/>
<g id="clust1" class="cluster">
<title>cluster_s1</title>
<polygon fill="#e2c6fc" stroke="black" stroke-dasharray="5,2" points="8,-890.93 8,-955.43 392,-955.43 392,-890.93 8,-890.93"/>
</g>
<g id="clust2" class="cluster">
<title>cluster_s3</title>
<path fill="none" stroke="black" stroke-width="5" d="M416,-575.74C416,-575.74 794,-575.74 794,-575.74 800,-575.74 806,-581.74 806,-587.74 806,-587.74 806,-1016.83 806,-1016.83 806,-1022.83 800,-1028.83 794,-1028.83 794,-1028.83 416,-1028.83 416,-1028.83 410,-1028.83 404,-1022.83 404,-1016.83 404,-1016.83 404,-587.74 404,-587.74 404,-581.74 410,-575.74 416,-575.74"/>
<text text-anchor="middle" x="605" y="-1011.53" font-family="Times,serif" font-size="14.00">battery</text>
</g>
<g id="clust3" class="cluster">
<title>cluster_s7</title>
<path fill="none" stroke="black" stroke-width="5" d="M463,-8C463,-8 794,-8 794,-8 800,-8 806,-14 806,-20 806,-20 806,-501.74 806,-501.74 806,-507.74 800,-513.74 794,-513.74 794,-513.74 463,-513.74 463,-513.74 457,-513.74 451,-507.74 451,-501.74 451,-501.74 451,-20 451,-20 451,-14 457,-8 463,-8"/>
<text text-anchor="middle" x="628.5" y="-496.44" font-family="Times,serif" font-size="14.00">lightbulb</text>
</g>
<!-- n2 -->
<g id="node1" class="node">
<title>n2</title>
<text text-anchor="start" x="36.25" y="-918.13" font-family="Courier New" font-size="14.00">Description:</text>
<text text-anchor="start" x="149.25" y="-918.13" font-family="Courier New" font-size="14.00">simple electric simulation</text>
</g>
<!-- n5 -->
<g id="node2" class="node">
<title>n5</title>
<ellipse fill="lightgrey" stroke="black" stroke-width="2.5" cx="605" cy="-923.18" rx="61.15" ry="61.15"/>
<text text-anchor="middle" x="605" y="-918.13" font-family="Courier New" font-size="14.00">power_demand</text>
</g>
<!-- n4 -->
<g id="node4" class="node">
<title>n4</title>
<polygon fill="#9dddea" stroke="#9dddea" stroke-width="2.5" points="786.25,-826.04 423.75,-826.04 423.75,-754.04 786.25,-754.04 786.25,-826.04"/>
<text text-anchor="middle" x="605" y="-784.99" font-family="Courier New" font-size="14.00">electric battery with initial charge level</text>
</g>
<!-- n5&#45;&gt;n4 -->
<g id="edge1" class="edge">
<title>n5&#45;&gt;n4</title>
<path fill="none" stroke="black" d="M605,-861.29C605,-861.29 605,-838.26 605,-838.26"/>
<polygon fill="black" stroke="black" points="608.5,-838.26 605,-828.26 601.5,-838.26 608.5,-838.26"/>
</g>
<!-- n6 -->
<g id="node3" class="node">
<title>n6</title>
<ellipse fill="lightgrey" stroke="black" stroke-width="2.5" cx="605" cy="-656.89" rx="61.15" ry="61.15"/>
<text text-anchor="middle" x="605" y="-651.84" font-family="Courier New" font-size="14.00">power_supply</text>
</g>
<!-- n9 -->
<g id="node5" class="node">
<title>n9</title>
<ellipse fill="lightgrey" stroke="black" stroke-width="2.5" cx="532" cy="-381.77" rx="61.15" ry="61.15"/>
<text text-anchor="middle" x="532" y="-376.72" font-family="Courier New" font-size="14.00">power_supply</text>
</g>
<!-- n6&#45;&gt;n9 -->
<g id="edge7" class="edge">
<title>n6&#45;&gt;n9</title>
<path fill="none" stroke="#e437ea" stroke-width="2" d="M568.5,-606.75C568.5,-606.75 568.5,-445.06 568.5,-445.06"/>
<polygon fill="#e437ea" stroke="#e437ea" stroke-width="2" points="572,-445.06 568.5,-435.06 565,-445.06 572,-445.06"/>
</g>
<!-- n4&#45;&gt;n6 -->
<g id="edge2" class="edge">
<title>n4&#45;&gt;n6</title>
<path fill="none" stroke="black" d="M605,-753.3C605,-753.3 605,-730.32 605,-730.32"/>
<polygon fill="black" stroke="black" points="608.5,-730.32 605,-720.32 601.5,-730.32 608.5,-730.32"/>
</g>
<!-- n8 -->
<g id="node9" class="node">
<title>n8</title>
<polygon fill="#9dddea" stroke="#9dddea" stroke-width="2.5" points="724.25,-258.3 559.75,-258.3 559.75,-186.3 724.25,-186.3 724.25,-258.3"/>
<text text-anchor="middle" x="642" y="-217.25" font-family="Courier New" font-size="14.00">electric lightbulb</text>
</g>
<!-- n9&#45;&gt;n8 -->
<g id="edge3" class="edge">
<title>n9&#45;&gt;n8</title>
<path fill="none" stroke="black" d="M576.45,-338.61C576.45,-338.61 576.45,-270.78 576.45,-270.78"/>
<polygon fill="black" stroke="black" points="579.95,-270.78 576.45,-260.78 572.95,-270.78 579.95,-270.78"/>
</g>
<!-- n10 -->
<g id="node6" class="node">
<title>n10</title>
<ellipse fill="lightgrey" stroke="black" stroke-width="2.5" cx="699" cy="-381.77" rx="87.47" ry="87.47"/>
<text text-anchor="middle" x="699" y="-376.72" font-family="Courier New" font-size="14.00">start_power_demand</text>
</g>
<!-- n10&#45;&gt;n8 -->
<g id="edge4" class="edge">
<title>n10&#45;&gt;n8</title>
<path fill="none" stroke="black" d="M667.89,-299.23C667.89,-299.23 667.89,-270.47 667.89,-270.47"/>
<polygon fill="black" stroke="black" points="671.39,-270.47 667.89,-260.47 664.39,-270.47 671.39,-270.47"/>
</g>
<!-- n12 -->
<g id="node7" class="node">
<title>n12</title>
<ellipse fill="lightgrey" stroke="black" stroke-width="2.5" cx="585" cy="-89.15" rx="61.15" ry="61.15"/>
<text text-anchor="middle" x="585" y="-84.1" font-family="Courier New" font-size="14.00">light_supply</text>
</g>
<!-- n11 -->
<g id="node8" class="node">
<title>n11</title>
<ellipse fill="lightgrey" stroke="black" stroke-width="2.5" cx="725" cy="-89.15" rx="61.15" ry="61.15"/>
<text text-anchor="middle" x="725" y="-84.1" font-family="Courier New" font-size="14.00">power_demand</text>
</g>
<!-- n11&#45;&gt;n5 -->
<g id="edge8" class="edge">
<title>n11&#45;&gt;n5</title>
<path fill="none" stroke="#e437ea" stroke-width="2" d="M786.83,-89C797.09,-89 804.47,-89 804.47,-89 804.47,-89 804.47,-923 804.47,-923 804.47,-923 680.05,-923 680.05,-923"/>
<polygon fill="#e437ea" stroke="#e437ea" stroke-width="2" points="680.05,-919.5 670.05,-923 680.05,-926.5 680.05,-919.5"/>
</g>
<!-- n8&#45;&gt;n12 -->
<g id="edge6" class="edge">
<title>n8&#45;&gt;n12</title>
<path fill="none" stroke="black" d="M602.95,-185.56C602.95,-185.56 602.95,-160.04 602.95,-160.04"/>
<polygon fill="black" stroke="black" points="606.45,-160.04 602.95,-150.04 599.45,-160.04 606.45,-160.04"/>
</g>
<!-- n8&#45;&gt;n11 -->
<g id="edge5" class="edge">
<title>n8&#45;&gt;n11</title>
<path fill="none" stroke="black" d="M694.05,-185.56C694.05,-185.56 694.05,-154.48 694.05,-154.48"/>
<polygon fill="black" stroke="black" points="697.55,-154.48 694.05,-144.48 690.55,-154.48 697.55,-154.48"/>
</g>
</g>
</svg>
