<?xml version="1.0" encoding="UTF-8" standalone="no"?>
<!DOCTYPE svg PUBLIC "-//W3C//DTD SVG 1.1//EN"
 "http://www.w3.org/Graphics/SVG/1.1/DTD/svg11.dtd">
<!-- Generated by graphviz version 12.2.1 (20241206.2353)
 -->
<!-- Pages: 1 -->
<svg width="1008pt" height="857pt"
 viewBox="0.00 0.00 1008.00 856.50" xmlns="http://www.w3.org/2000/svg" xmlns:xlink="http://www.w3.org/1999/xlink">
<g id="graph0" class="graph" transform="scale(1 1) rotate(0) translate(4 852.5)">
<polygon fill="white" stroke="none" points="-4,4 -4,-852.5 1004,-852.5 1004,4 -4,4"/>
<g id="clust1" class="cluster">
<title>cluster_s1</title>
<polygon fill="#e2c6fc" stroke="black" stroke-dasharray="5,2" points="8,-727.75 8,-792.25 376,-792.25 376,-727.75 8,-727.75"/>
</g>
<g id="clust2" class="cluster">
<title>cluster_s13</title>
<path fill="none" stroke="black" stroke-width="5" d="M400,-488C400,-488 488,-488 488,-488 494,-488 500,-494 500,-500 500,-500 500,-828.5 500,-828.5 500,-834.5 494,-840.5 488,-840.5 488,-840.5 400,-840.5 400,-840.5 394,-840.5 388,-834.5 388,-828.5 388,-828.5 388,-500 388,-500 388,-494 394,-488 400,-488"/>
<text text-anchor="middle" x="444" y="-823.2" font-family="Times,serif" font-size="14.00">api&#45;backend&#45;0</text>
</g>
<g id="clust3" class="cluster">
<title>cluster_s17</title>
<path fill="none" stroke="black" stroke-width="5" d="M550,-488C550,-488 638,-488 638,-488 644,-488 650,-494 650,-500 650,-500 650,-828.5 650,-828.5 650,-834.5 644,-840.5 638,-840.5 638,-840.5 550,-840.5 550,-840.5 544,-840.5 538,-834.5 538,-828.5 538,-828.5 538,-500 538,-500 538,-494 544,-488 550,-488"/>
<text text-anchor="middle" x="594" y="-823.2" font-family="Times,serif" font-size="14.00">api&#45;backend&#45;1</text>
</g>
<g id="clust4" class="cluster">
<title>cluster_s21</title>
<path fill="none" stroke="black" stroke-width="5" d="M889,-488C889,-488 977,-488 977,-488 983,-488 989,-494 989,-500 989,-500 989,-828.5 989,-828.5 989,-834.5 983,-840.5 977,-840.5 977,-840.5 889,-840.5 889,-840.5 883,-840.5 877,-834.5 877,-828.5 877,-828.5 877,-500 877,-500 877,-494 883,-488 889,-488"/>
<text text-anchor="middle" x="933" y="-823.2" font-family="Times,serif" font-size="14.00">api&#45;backend&#45;2</text>
</g>
<g id="clust5" class="cluster">
<title>cluster_s3</title>
<path fill="none" stroke="black" stroke-width="5" d="M496,-8C496,-8 980,-8 980,-8 986,-8 992,-14 992,-20 992,-20 992,-414 992,-414 992,-420 986,-426 980,-426 980,-426 496,-426 496,-426 490,-426 484,-420 484,-414 484,-414 484,-20 484,-20 484,-14 490,-8 496,-8"/>
<text text-anchor="middle" x="738" y="-408.7" font-family="Times,serif" font-size="14.00">lb</text>
</g>
<!-- n2 -->
<g id="node1" class="node">
<title>n2</title>
<text text-anchor="start" x="36.5" y="-754.95" font-family="Courier New" font-size="14.00">Description:</text>
<text text-anchor="start" x="149.5" y="-754.95" font-family="Courier New" font-size="14.00">A mesh with 4 components</text>
</g>
<!-- n15 -->
<g id="node2" class="node">
<title>n15</title>
<ellipse fill="lightgrey" stroke="black" stroke-width="2.5" cx="444" cy="-760" rx="36" ry="36"/>
<text text-anchor="middle" x="444" y="-754.95" font-family="Courier New" font-size="14.00">in</text>
</g>
<!-- n14 -->
<g id="node4" class="node">
<title>n14</title>
<polygon fill="#9dddea" stroke="#9dddea" stroke-width="2.5" points="480,-688 408,-688 408,-616 480,-616 480,-688"/>
<text text-anchor="middle" x="444" y="-646.2" font-family="Courier New" font-size="14.00">ğ‘“</text>
</g>
<!-- n15&#45;&gt;n14 -->
<g id="edge1" class="edge">
<title>n15&#45;&gt;n14</title>
<path fill="none" stroke="black" d="M444,-723.14C444,-723.14 444,-700.21 444,-700.21"/>
<polygon fill="black" stroke="black" points="447.5,-700.21 444,-690.21 440.5,-700.21 447.5,-700.21"/>
</g>
<!-- n16 -->
<g id="node3" class="node">
<title>n16</title>
<ellipse fill="lightgrey" stroke="black" stroke-width="2.5" cx="444" cy="-544" rx="36" ry="36"/>
<text text-anchor="middle" x="444" y="-538.95" font-family="Courier New" font-size="14.00">out</text>
</g>
<!-- n6 -->
<g id="node12" class="node">
<title>n6</title>
<ellipse fill="lightgrey" stroke="black" stroke-width="2.5" cx="696" cy="-333.51" rx="47.99" ry="47.99"/>
<text text-anchor="middle" x="696" y="-328.46" font-family="Courier New" font-size="14.00">upstream0</text>
</g>
<!-- n16&#45;&gt;n6 -->
<g id="edge15" class="edge">
<title>n16&#45;&gt;n6</title>
<path fill="none" stroke="#e437ea" stroke-width="2" d="M444,-507.13C444,-457.68 444,-376 444,-376 444,-376 658.81,-376 658.81,-376"/>
<polygon fill="#e437ea" stroke="#e437ea" stroke-width="2" points="658.81,-379.5 668.81,-376 658.81,-372.5 658.81,-379.5"/>
</g>
<!-- n14&#45;&gt;n16 -->
<g id="edge2" class="edge">
<title>n14&#45;&gt;n16</title>
<path fill="none" stroke="black" d="M444,-615.14C444,-615.14 444,-592.21 444,-592.21"/>
<polygon fill="black" stroke="black" points="447.5,-592.21 444,-582.21 440.5,-592.21 447.5,-592.21"/>
</g>
<!-- n19 -->
<g id="node5" class="node">
<title>n19</title>
<ellipse fill="lightgrey" stroke="black" stroke-width="2.5" cx="594" cy="-760" rx="36" ry="36"/>
<text text-anchor="middle" x="594" y="-754.95" font-family="Courier New" font-size="14.00">in</text>
</g>
<!-- n18 -->
<g id="node7" class="node">
<title>n18</title>
<polygon fill="#9dddea" stroke="#9dddea" stroke-width="2.5" points="630,-688 558,-688 558,-616 630,-616 630,-688"/>
<text text-anchor="middle" x="594" y="-646.2" font-family="Courier New" font-size="14.00">ğ‘“</text>
</g>
<!-- n19&#45;&gt;n18 -->
<g id="edge3" class="edge">
<title>n19&#45;&gt;n18</title>
<path fill="none" stroke="black" d="M594,-723.14C594,-723.14 594,-700.21 594,-700.21"/>
<polygon fill="black" stroke="black" points="597.5,-700.21 594,-690.21 590.5,-700.21 597.5,-700.21"/>
</g>
<!-- n20 -->
<g id="node6" class="node">
<title>n20</title>
<ellipse fill="lightgrey" stroke="black" stroke-width="2.5" cx="594" cy="-544" rx="36" ry="36"/>
<text text-anchor="middle" x="594" y="-538.95" font-family="Courier New" font-size="14.00">out</text>
</g>
<!-- n7 -->
<g id="node13" class="node">
<title>n7</title>
<ellipse fill="lightgrey" stroke="black" stroke-width="2.5" cx="810" cy="-333.51" rx="47.99" ry="47.99"/>
<text text-anchor="middle" x="810" y="-328.46" font-family="Courier New" font-size="14.00">upstream1</text>
</g>
<!-- n20&#45;&gt;n7 -->
<g id="edge16" class="edge">
<title>n20&#45;&gt;n7</title>
<path fill="none" stroke="#e437ea" stroke-width="2" d="M630.64,-544C692.27,-544 810,-544 810,-544 810,-544 810,-395.36 810,-395.36"/>
<polygon fill="#e437ea" stroke="#e437ea" stroke-width="2" points="813.5,-395.36 810,-385.36 806.5,-395.36 813.5,-395.36"/>
</g>
<!-- n18&#45;&gt;n20 -->
<g id="edge4" class="edge">
<title>n18&#45;&gt;n20</title>
<path fill="none" stroke="black" d="M594,-615.14C594,-615.14 594,-592.21 594,-592.21"/>
<polygon fill="black" stroke="black" points="597.5,-592.21 594,-582.21 590.5,-592.21 597.5,-592.21"/>
</g>
<!-- n23 -->
<g id="node8" class="node">
<title>n23</title>
<ellipse fill="lightgrey" stroke="black" stroke-width="2.5" cx="933" cy="-760" rx="36" ry="36"/>
<text text-anchor="middle" x="933" y="-754.95" font-family="Courier New" font-size="14.00">in</text>
</g>
<!-- n22 -->
<g id="node10" class="node">
<title>n22</title>
<polygon fill="#9dddea" stroke="#9dddea" stroke-width="2.5" points="969,-688 897,-688 897,-616 969,-616 969,-688"/>
<text text-anchor="middle" x="933" y="-646.2" font-family="Courier New" font-size="14.00">ğ‘“</text>
</g>
<!-- n23&#45;&gt;n22 -->
<g id="edge5" class="edge">
<title>n23&#45;&gt;n22</title>
<path fill="none" stroke="black" d="M933,-723.14C933,-723.14 933,-700.21 933,-700.21"/>
<polygon fill="black" stroke="black" points="936.5,-700.21 933,-690.21 929.5,-700.21 936.5,-700.21"/>
</g>
<!-- n24 -->
<g id="node9" class="node">
<title>n24</title>
<ellipse fill="lightgrey" stroke="black" stroke-width="2.5" cx="933" cy="-544" rx="36" ry="36"/>
<text text-anchor="middle" x="933" y="-538.95" font-family="Courier New" font-size="14.00">out</text>
</g>
<!-- n8 -->
<g id="node14" class="node">
<title>n8</title>
<ellipse fill="lightgrey" stroke="black" stroke-width="2.5" cx="924" cy="-333.51" rx="47.99" ry="47.99"/>
<text text-anchor="middle" x="924" y="-328.46" font-family="Courier New" font-size="14.00">upstream2</text>
</g>
<!-- n24&#45;&gt;n8 -->
<g id="edge17" class="edge">
<title>n24&#45;&gt;n8</title>
<path fill="none" stroke="#e437ea" stroke-width="2" d="M933,-507.34C933,-507.34 933,-394.63 933,-394.63"/>
<polygon fill="#e437ea" stroke="#e437ea" stroke-width="2" points="936.5,-394.63 933,-384.63 929.5,-394.63 936.5,-394.63"/>
</g>
<!-- n22&#45;&gt;n24 -->
<g id="edge6" class="edge">
<title>n22&#45;&gt;n24</title>
<path fill="none" stroke="black" d="M933,-615.14C933,-615.14 933,-592.21 933,-592.21"/>
<polygon fill="black" stroke="black" points="936.5,-592.21 933,-582.21 929.5,-592.21 936.5,-592.21"/>
</g>
<!-- n5 -->
<g id="node11" class="node">
<title>n5</title>
<ellipse fill="lightgrey" stroke="black" stroke-width="2.5" cx="594" cy="-333.51" rx="36" ry="36"/>
<text text-anchor="middle" x="594" y="-328.46" font-family="Courier New" font-size="14.00">in</text>
</g>
<!-- n4 -->
<g id="node19" class="node">
<title>n4</title>
<polygon fill="#9dddea" stroke="#9dddea" stroke-width="2.5" points="873.5,-249.52 626.5,-249.52 626.5,-177.52 873.5,-177.52 873.5,-249.52"/>
<text text-anchor="middle" x="750" y="-208.47" font-family="Courier New" font-size="14.00">Load balancer with 3 workers</text>
</g>
<!-- n5&#45;&gt;n4 -->
<g id="edge7" class="edge">
<title>n5&#45;&gt;n4</title>
<path fill="none" stroke="black" d="M622.13,-309.62C622.13,-274.74 622.13,-214 622.13,-214 622.13,-214 622.47,-214 622.47,-214"/>
<polygon fill="black" stroke="black" points="614.04,-217.5 624.04,-214 614.04,-210.5 614.04,-217.5"/>
</g>
<!-- n6&#45;&gt;n4 -->
<g id="edge8" class="edge">
<title>n6&#45;&gt;n4</title>
<path fill="none" stroke="black" d="M696,-284.71C696,-284.71 696,-262.02 696,-262.02"/>
<polygon fill="black" stroke="black" points="699.5,-262.02 696,-252.02 692.5,-262.02 699.5,-262.02"/>
</g>
<!-- n7&#45;&gt;n4 -->
<g id="edge9" class="edge">
<title>n7&#45;&gt;n4</title>
<path fill="none" stroke="black" d="M810,-284.71C810,-284.71 810,-262.02 810,-262.02"/>
<polygon fill="black" stroke="black" points="813.5,-262.02 810,-252.02 806.5,-262.02 813.5,-262.02"/>
</g>
<!-- n8&#45;&gt;n4 -->
<g id="edge10" class="edge">
<title>n8&#45;&gt;n4</title>
<path fill="none" stroke="black" d="M875.1,-334C869.5,-334 865.74,-334 865.74,-334 865.74,-334 865.74,-261.84 865.74,-261.84"/>
<polygon fill="black" stroke="black" points="869.24,-261.84 865.74,-251.84 862.24,-261.84 869.24,-261.84"/>
</g>
<!-- n9 -->
<g id="node15" class="node">
<title>n9</title>
<ellipse fill="lightgrey" stroke="black" stroke-width="2.5" cx="561" cy="-84.76" rx="56.76" ry="56.76"/>
<text text-anchor="middle" x="561" y="-79.71" font-family="Courier New" font-size="14.00">downstream0</text>
</g>
<!-- n9&#45;&gt;n15 -->
<g id="edge18" class="edge">
<title>n9&#45;&gt;n15</title>
<path fill="none" stroke="#e437ea" stroke-width="2" d="M522.16,-127.49C522.16,-277.64 522.16,-772 522.16,-772 522.16,-772 491.99,-772 491.99,-772"/>
<polygon fill="#e437ea" stroke="#e437ea" stroke-width="2" points="491.99,-768.5 481.99,-772 491.99,-775.5 491.99,-768.5"/>
</g>
<!-- n10 -->
<g id="node16" class="node">
<title>n10</title>
<ellipse fill="lightgrey" stroke="black" stroke-width="2.5" cx="693" cy="-84.76" rx="56.76" ry="56.76"/>
<text text-anchor="middle" x="693" y="-79.71" font-family="Courier New" font-size="14.00">downstream1</text>
</g>
<!-- n10&#45;&gt;n19 -->
<g id="edge19" class="edge">
<title>n10&#45;&gt;n19</title>
<path fill="none" stroke="#e437ea" stroke-width="2" d="M674.08,-139.04C674.08,-150.91 674.08,-160 674.08,-160 674.08,-160 540.08,-160 540.08,-160 540.08,-160 540.08,-748 540.08,-748 540.08,-748 546.21,-748 546.21,-748"/>
<polygon fill="#e437ea" stroke="#e437ea" stroke-width="2" points="546.21,-751.5 556.21,-748 546.21,-744.5 546.21,-751.5"/>
</g>
<!-- n11 -->
<g id="node17" class="node">
<title>n11</title>
<ellipse fill="lightgrey" stroke="black" stroke-width="2.5" cx="915" cy="-84.76" rx="56.76" ry="56.76"/>
<text text-anchor="middle" x="915" y="-79.71" font-family="Courier New" font-size="14.00">downstream2</text>
</g>
<!-- n11&#45;&gt;n23 -->
<g id="edge20" class="edge">
<title>n11&#45;&gt;n23</title>
<path fill="none" stroke="#e437ea" stroke-width="2" d="M972.6,-85C982.67,-85 989.99,-85 989.99,-85 989.99,-85 989.99,-760 989.99,-760 989.99,-760 982.76,-760 982.76,-760"/>
<polygon fill="#e437ea" stroke="#e437ea" stroke-width="2" points="982.76,-756.5 972.76,-760 982.76,-763.5 982.76,-756.5"/>
</g>
<!-- n12 -->
<g id="node18" class="node">
<title>n12</title>
<ellipse fill="lightgrey" stroke="black" stroke-width="2.5" cx="804" cy="-84.76" rx="36" ry="36"/>
<text text-anchor="middle" x="804" y="-79.71" font-family="Courier New" font-size="14.00">out</text>
</g>
<!-- n4&#45;&gt;n9 -->
<g id="edge11" class="edge">
<title>n4&#45;&gt;n9</title>
<path fill="none" stroke="black" d="M631.37,-176.69C631.37,-138.72 631.37,-85 631.37,-85 631.37,-85 629.98,-85 629.98,-85"/>
<polygon fill="black" stroke="black" points="629.98,-81.5 619.98,-85 629.98,-88.5 629.98,-81.5"/>
</g>
<!-- n4&#45;&gt;n10 -->
<g id="edge12" class="edge">
<title>n4&#45;&gt;n10</title>
<path fill="none" stroke="black" d="M711.92,-176.63C711.92,-176.63 711.92,-150.46 711.92,-150.46"/>
<polygon fill="black" stroke="black" points="715.42,-150.46 711.92,-140.46 708.42,-150.46 715.42,-150.46"/>
</g>
<!-- n4&#45;&gt;n11 -->
<g id="edge13" class="edge">
<title>n4&#45;&gt;n11</title>
<path fill="none" stroke="black" d="M865.87,-176.63C865.87,-176.63 865.87,-126.25 865.87,-126.25"/>
<polygon fill="black" stroke="black" points="869.37,-126.25 865.87,-116.25 862.37,-126.25 869.37,-126.25"/>
</g>
<!-- n4&#45;&gt;n12 -->
<g id="edge14" class="edge">
<title>n4&#45;&gt;n12</title>
<path fill="none" stroke="black" d="M804,-176.63C804,-176.63 804,-133.18 804,-133.18"/>
<polygon fill="black" stroke="black" points="807.5,-133.18 804,-123.18 800.5,-133.18 807.5,-133.18"/>
</g>
</g>
</svg>
