<?xml version="1.0" encoding="UTF-8" standalone="no"?>
<!DOCTYPE svg PUBLIC "-//W3C//DTD SVG 1.1//EN"
 "http://www.w3.org/Graphics/SVG/1.1/DTD/svg11.dtd">
<!-- Generated by graphviz version 12.2.1 (20241206.2353)
 -->
<!-- Pages: 1 -->
<svg width="1029pt" height="1206pt"
 viewBox="0.00 0.00 1029.00 1205.50" xmlns="http://www.w3.org/2000/svg" xmlns:xlink="http://www.w3.org/1999/xlink">
<g id="graph0" class="graph" transform="scale(1 1) rotate(0) translate(4 1201.5)">
<polygon fill="white" stroke="none" points="-4,4 -4,-1201.5 1025,-1201.5 1025,4 -4,4"/>
<g id="clust1" class="cluster">
<title>cluster_s1</title>
<polygon fill="#e2c6fc" stroke="black" stroke-dasharray="5,2" points="8,-1076.75 8,-1141.25 376,-1141.25 376,-1076.75 8,-1076.75"/>
</g>
<g id="clust2" class="cluster">
<title>cluster_s11</title>
<path fill="none" stroke="black" stroke-width="5" d="M557,-8C557,-8 1001,-8 1001,-8 1007,-8 1013,-14 1013,-20 1013,-20 1013,-348.5 1013,-348.5 1013,-354.5 1007,-360.5 1001,-360.5 1001,-360.5 557,-360.5 557,-360.5 551,-360.5 545,-354.5 545,-348.5 545,-348.5 545,-20 545,-20 545,-14 551,-8 557,-8"/>
<text text-anchor="middle" x="779" y="-343.2" font-family="Times,serif" font-size="14.00">factorizer</text>
</g>
<g id="clust3" class="cluster">
<title>cluster_s3</title>
<path fill="none" stroke="black" stroke-width="5" d="M413,-422.5C413,-422.5 865,-422.5 865,-422.5 871,-422.5 877,-428.5 877,-434.5 877,-434.5 877,-763 877,-763 877,-769 871,-775 865,-775 865,-775 413,-775 413,-775 407,-775 401,-769 401,-763 401,-763 401,-434.5 401,-434.5 401,-428.5 407,-422.5 413,-422.5"/>
<text text-anchor="middle" x="639" y="-757.7" font-family="Times,serif" font-size="14.00">filter</text>
</g>
<g id="clust4" class="cluster">
<title>cluster_s8</title>
<path fill="none" stroke="black" stroke-width="5" d="M385,-116C385,-116 525,-116 525,-116 531,-116 537,-122 537,-128 537,-128 537,-348.5 537,-348.5 537,-354.5 531,-360.5 525,-360.5 525,-360.5 385,-360.5 385,-360.5 379,-360.5 373,-354.5 373,-348.5 373,-348.5 373,-128 373,-128 373,-122 379,-116 385,-116"/>
<text text-anchor="middle" x="455" y="-343.2" font-family="Times,serif" font-size="14.00">logger</text>
</g>
<g id="clust5" class="cluster">
<title>cluster_s15</title>
<path fill="none" stroke="black" stroke-width="5" d="M400,-837C400,-837 878,-837 878,-837 884,-837 890,-843 890,-849 890,-849 890,-1177.5 890,-1177.5 890,-1183.5 884,-1189.5 878,-1189.5 878,-1189.5 400,-1189.5 400,-1189.5 394,-1189.5 388,-1183.5 388,-1177.5 388,-1177.5 388,-849 388,-849 388,-843 394,-837 400,-837"/>
<text text-anchor="middle" x="639" y="-1172.2" font-family="Times,serif" font-size="14.00">starter</text>
</g>
<!-- n2 -->
<g id="node1" class="node">
<title>n2</title>
<text text-anchor="start" x="36.5" y="-1103.95" font-family="Courier New" font-size="14.00">Description:</text>
<text text-anchor="start" x="149.5" y="-1103.95" font-family="Courier New" font-size="14.00">A mesh with 4 components</text>
</g>
<!-- n13 -->
<g id="node2" class="node">
<title>n13</title>
<ellipse fill="lightgrey" stroke="black" stroke-width="2.5" cx="779" cy="-280" rx="36" ry="36"/>
<text text-anchor="middle" x="779" y="-274.95" font-family="Courier New" font-size="14.00">in</text>
</g>
<!-- n12 -->
<g id="node4" class="node">
<title>n12</title>
<polygon fill="#9dddea" stroke="#9dddea" stroke-width="2.5" points="993.25,-208 564.75,-208 564.75,-136 993.25,-136 993.25,-208"/>
<text text-anchor="middle" x="779" y="-166.95" font-family="Courier New" font-size="14.00">Prime factorization implemented as separate f&#45;mesh</text>
</g>
<!-- n13&#45;&gt;n12 -->
<g id="edge1" class="edge">
<title>n13&#45;&gt;n12</title>
<path fill="none" stroke="black" d="M779,-243.13C779,-243.13 779,-220.21 779,-220.21"/>
<polygon fill="black" stroke="black" points="782.5,-220.21 779,-210.21 775.5,-220.21 782.5,-220.21"/>
</g>
<!-- n14 -->
<g id="node3" class="node">
<title>n14</title>
<ellipse fill="lightgrey" stroke="black" stroke-width="2.5" cx="779" cy="-64" rx="36" ry="36"/>
<text text-anchor="middle" x="779" y="-58.95" font-family="Courier New" font-size="14.00">out</text>
</g>
<!-- n12&#45;&gt;n14 -->
<g id="edge2" class="edge">
<title>n12&#45;&gt;n14</title>
<path fill="none" stroke="black" d="M779,-135.13C779,-135.13 779,-112.21 779,-112.21"/>
<polygon fill="black" stroke="black" points="782.5,-112.21 779,-102.21 775.5,-112.21 782.5,-112.21"/>
</g>
<!-- n5 -->
<g id="node5" class="node">
<title>n5</title>
<ellipse fill="lightgrey" stroke="black" stroke-width="2.5" cx="639" cy="-694.5" rx="36" ry="36"/>
<text text-anchor="middle" x="639" y="-689.45" font-family="Courier New" font-size="14.00">in</text>
</g>
<!-- n4 -->
<g id="node8" class="node">
<title>n4</title>
<polygon fill="#9dddea" stroke="#9dddea" stroke-width="2.5" points="857.38,-622.5 420.62,-622.5 420.62,-550.5 857.38,-550.5 857.38,-622.5"/>
<text text-anchor="middle" x="639" y="-581.45" font-family="Courier New" font-size="14.00">In this component we can do some optional filtering</text>
</g>
<!-- n5&#45;&gt;n4 -->
<g id="edge3" class="edge">
<title>n5&#45;&gt;n4</title>
<path fill="none" stroke="black" d="M639,-657.63C639,-657.63 639,-634.71 639,-634.71"/>
<polygon fill="black" stroke="black" points="642.5,-634.71 639,-624.71 635.5,-634.71 642.5,-634.71"/>
</g>
<!-- n7 -->
<g id="node6" class="node">
<title>n7</title>
<ellipse fill="lightgrey" stroke="black" stroke-width="2.5" cx="594" cy="-478.5" rx="36" ry="36"/>
<text text-anchor="middle" x="594" y="-473.45" font-family="Courier New" font-size="14.00">log</text>
</g>
<!-- n10 -->
<g id="node9" class="node">
<title>n10</title>
<ellipse fill="lightgrey" stroke="black" stroke-width="2.5" cx="455" cy="-280" rx="36" ry="36"/>
<text text-anchor="middle" x="455" y="-274.95" font-family="Courier New" font-size="14.00">in</text>
</g>
<!-- n7&#45;&gt;n10 -->
<g id="edge9" class="edge">
<title>n7&#45;&gt;n10</title>
<path fill="none" stroke="#e437ea" stroke-width="2" d="M557.33,-479C516.39,-479 455.81,-479 455.81,-479 455.81,-479 455.81,-329.99 455.81,-329.99"/>
<polygon fill="#e437ea" stroke="#e437ea" stroke-width="2" points="459.31,-329.99 455.81,-319.99 452.31,-329.99 459.31,-329.99"/>
</g>
<!-- n6 -->
<g id="node7" class="node">
<title>n6</title>
<ellipse fill="lightgrey" stroke="black" stroke-width="2.5" cx="684" cy="-478.5" rx="36" ry="36"/>
<text text-anchor="middle" x="684" y="-473.45" font-family="Courier New" font-size="14.00">out</text>
</g>
<!-- n6&#45;&gt;n13 -->
<g id="edge10" class="edge">
<title>n6&#45;&gt;n13</title>
<path fill="none" stroke="#e437ea" stroke-width="2" d="M684,-441.63C684,-384.22 684,-280 684,-280 684,-280 729.24,-280 729.24,-280"/>
<polygon fill="#e437ea" stroke="#e437ea" stroke-width="2" points="729.24,-283.5 739.24,-280 729.24,-276.5 729.24,-283.5"/>
</g>
<!-- n4&#45;&gt;n7 -->
<g id="edge5" class="edge">
<title>n4&#45;&gt;n7</title>
<path fill="none" stroke="black" d="M594,-549.63C594,-549.63 594,-526.71 594,-526.71"/>
<polygon fill="black" stroke="black" points="597.5,-526.71 594,-516.71 590.5,-526.71 597.5,-526.71"/>
</g>
<!-- n4&#45;&gt;n6 -->
<g id="edge4" class="edge">
<title>n4&#45;&gt;n6</title>
<path fill="none" stroke="black" d="M684,-549.63C684,-549.63 684,-526.71 684,-526.71"/>
<polygon fill="black" stroke="black" points="687.5,-526.71 684,-516.71 680.5,-526.71 687.5,-526.71"/>
</g>
<!-- n9 -->
<g id="node10" class="node">
<title>n9</title>
<polygon fill="#9dddea" stroke="#9dddea" stroke-width="2.5" points="516.62,-208 393.38,-208 393.38,-136 516.62,-136 516.62,-208"/>
<text text-anchor="middle" x="455" y="-166.95" font-family="Courier New" font-size="14.00">Simple logger</text>
</g>
<!-- n10&#45;&gt;n9 -->
<g id="edge6" class="edge">
<title>n10&#45;&gt;n9</title>
<path fill="none" stroke="black" d="M455,-243.13C455,-243.13 455,-220.21 455,-220.21"/>
<polygon fill="black" stroke="black" points="458.5,-220.21 455,-210.21 451.5,-220.21 458.5,-220.21"/>
</g>
<!-- n17 -->
<g id="node11" class="node">
<title>n17</title>
<ellipse fill="lightgrey" stroke="black" stroke-width="2.5" cx="639" cy="-1109" rx="36" ry="36"/>
<text text-anchor="middle" x="639" y="-1103.95" font-family="Courier New" font-size="14.00">in</text>
</g>
<!-- n16 -->
<g id="node13" class="node">
<title>n16</title>
<polygon fill="#9dddea" stroke="#9dddea" stroke-width="2.5" points="869.75,-1037 408.25,-1037 408.25,-965 869.75,-965 869.75,-1037"/>
<text text-anchor="middle" x="639" y="-995.95" font-family="Courier New" font-size="14.00">This component just holds numbers we want to factorize</text>
</g>
<!-- n17&#45;&gt;n16 -->
<g id="edge7" class="edge">
<title>n17&#45;&gt;n16</title>
<path fill="none" stroke="black" d="M639,-1072.13C639,-1072.13 639,-1049.21 639,-1049.21"/>
<polygon fill="black" stroke="black" points="642.5,-1049.21 639,-1039.21 635.5,-1049.21 642.5,-1049.21"/>
</g>
<!-- n18 -->
<g id="node12" class="node">
<title>n18</title>
<ellipse fill="lightgrey" stroke="black" stroke-width="2.5" cx="639" cy="-893" rx="36" ry="36"/>
<text text-anchor="middle" x="639" y="-887.95" font-family="Courier New" font-size="14.00">out</text>
</g>
<!-- n18&#45;&gt;n5 -->
<g id="edge11" class="edge">
<title>n18&#45;&gt;n5</title>
<path fill="none" stroke="#e437ea" stroke-width="2" d="M639,-856.13C639,-856.13 639,-744.2 639,-744.2"/>
<polygon fill="#e437ea" stroke="#e437ea" stroke-width="2" points="642.5,-744.2 639,-734.2 635.5,-744.2 642.5,-744.2"/>
</g>
<!-- n16&#45;&gt;n18 -->
<g id="edge8" class="edge">
<title>n16&#45;&gt;n18</title>
<path fill="none" stroke="black" d="M639,-964.13C639,-964.13 639,-941.21 639,-941.21"/>
<polygon fill="black" stroke="black" points="642.5,-941.21 639,-931.21 635.5,-941.21 642.5,-941.21"/>
</g>
</g>
</svg>
